<?xml version="1.0" encoding="UTF-8"?>
<svg version="1.1" xmlns="http://www.w3.org/2000/svg" width="423" height="344">
<path d="M0 0 C139.59 0 279.18 0 423 0 C423 113.52 423 227.04 423 344 C283.41 344 143.82 344 0 344 C0 230.48 0 116.96 0 0 Z " fill="#FEFEFE" transform="translate(0,0)"/>
<path d="M0 0 C2.46861104 1.28077349 4.77287086 2.59601149 7.125 4.0625 C8.63541818 4.97741098 10.14724325 5.89000169 11.66015625 6.80078125 C12.92110107 7.56189209 12.92110107 7.56189209 14.20751953 8.33837891 C19.01942121 11.20162448 23.89210499 13.95883486 28.76000977 16.7253418 C39.23356749 22.67922528 49.66614835 28.69916779 60.06518555 34.7824707 C70.56763616 40.92403616 81.10926041 46.99702713 91.65185547 53.06933594 C95.11492701 55.06627117 98.57534783 57.06773242 102.03515625 59.0703125 C103.20261149 59.74556772 104.37009171 60.42077973 105.53759766 61.09594727 C107.72927007 62.36364232 109.92039322 63.63228769 112.11083984 64.90209961 C113.11453613 65.4822583 114.11823242 66.06241699 115.15234375 66.66015625 C116.01851318 67.16168213 116.88468262 67.66320801 117.77709961 68.17993164 C122.48810921 70.84037983 127.2503013 73.40925525 132 76 C132 128.14 132 180.28 132 234 C125.4 237.63 118.8 241.26 112 245 C105.85358537 248.5898201 105.85358537 248.5898201 99.7265625 252.2109375 C86.0755985 260.29444951 72.2791813 268.13762773 58.5 276 C51.82389288 279.80940281 45.15459806 283.6303407 38.49511719 287.46875 C36.30026014 288.73369271 34.10430525 289.9967325 31.90722656 291.2578125 C26.3077166 294.47940278 20.74338723 297.74652789 15.22265625 301.1015625 C14.13509033 301.75592285 13.04752441 302.4102832 11.92700195 303.08447266 C9.8558717 304.33323067 7.79271685 305.59534272 5.73901367 306.87255859 C4.80935791 307.43023926 3.87970215 307.98791992 2.921875 308.5625 C2.11331055 309.05878906 1.30474609 309.55507813 0.47167969 310.06640625 C-2.80105846 311.30257285 -4.64690262 310.9210352 -8 310 C-10.68701172 308.73168945 -10.68701172 308.73168945 -13.4296875 307.11328125 C-14.97438721 306.21138062 -14.97438721 306.21138062 -16.55029297 305.29125977 C-17.64744629 304.63826904 -18.74459961 303.98527832 -19.875 303.3125 C-21.03869479 302.6292227 -22.20292949 301.94686418 -23.36767578 301.26538086 C-25.75843708 299.86472972 -28.14615248 298.45910194 -30.53125 297.04882812 C-35.63359857 294.03245631 -40.75495088 291.04869208 -45.875 288.0625 C-46.84550293 287.4950708 -47.81600586 286.9276416 -48.81591797 286.34301758 C-57.10935999 281.49986964 -65.44617893 276.73446041 -73.79046631 271.97976685 C-81.88707912 267.36515932 -89.95785299 262.70909244 -98 258 C-107.09459743 252.67537206 -116.22432723 247.4149479 -125.375 242.1875 C-125.99616699 241.83244385 -126.61733398 241.4773877 -127.25732422 241.11157227 C-133.56451744 237.43716272 -133.56451744 237.43716272 -140 234 C-140 181.86 -140 129.72 -140 76 C-131.75 71.38 -123.5 66.76 -115 62 C-105.95781556 56.73329351 -105.95781556 56.73329351 -96.92578125 51.44921875 C-91.00506756 47.98903602 -85.03955001 44.61168771 -79.0625 41.25 C-71.89744067 37.21864224 -64.77058155 33.13569555 -57.69702148 28.94604492 C-50.08799423 24.44494286 -42.42934874 20.02988946 -34.75952148 15.63330078 C-29.57936235 12.66094757 -24.4201383 9.66711926 -19.3203125 6.55859375 C-18.45776855 6.039021 -17.59522461 5.51944824 -16.70654297 4.98413086 C-15.11643313 4.02345925 -13.53407904 3.04978088 -11.96142578 2.06079102 C-7.60904795 -0.54973911 -5.04975291 -1.78424603 0 0 Z " fill="#3C4753" transform="translate(218,20)"/>
<path d="M0 0 C2.484375 1.15625 2.484375 1.15625 4.75 2.5 C5.50796875 2.9434375 6.2659375 3.386875 7.046875 3.84375 C7.69140625 4.2253125 8.3359375 4.606875 9 5 C9.99 5.495 9.99 5.495 11 6 C11 6.66 11 7.32 11 8 C11.87483032 8.18332886 11.87483032 8.18332886 12.76733398 8.37036133 C15.04390269 9.01238109 16.70410084 9.85408041 18.72265625 11.07421875 C19.42084473 11.49171387 20.1190332 11.90920898 20.83837891 12.33935547 C21.57233887 12.78424316 22.30629883 13.22913086 23.0625 13.6875 C24.591646 14.60160324 26.12159459 15.51436519 27.65234375 16.42578125 C28.39597168 16.86873535 29.13959961 17.31168945 29.90576172 17.76806641 C33.3914568 19.81852308 36.94164834 21.74258583 40.5078125 23.6484375 C46.55519668 26.92805337 52.48417078 30.42833572 58.4375 33.875 C59.24952881 34.34478271 60.06155762 34.81456543 60.89819336 35.29858398 C65.58747624 38.01417529 70.2699761 40.7409309 74.9453125 43.48046875 C84.65658337 49.16866565 94.38058882 54.80860302 104.24511719 60.22705078 C113.95990263 65.59203111 123.47435396 71.30805515 133 77 C133.85895717 77.38663881 134.71791433 77.77327763 135.60290051 78.17163277 C138 80 138 80 138.63758564 82.94766045 C138.64336722 84.16254206 138.64914881 85.37742367 138.65510559 86.62911987 C138.66998057 87.64447758 138.66998057 87.64447758 138.68515605 88.68034756 C138.71217529 90.95388078 138.70334189 93.22585525 138.69458008 95.49951172 C138.70626392 97.12730469 138.72003212 98.75508384 138.73573303 100.38284302 C138.77140537 104.80861369 138.77484376 109.2338613 138.77042222 113.65975332 C138.76923436 117.35267608 138.78266935 121.04548931 138.79580516 124.73838437 C138.82615904 133.45050438 138.82944561 142.16235687 138.81665039 150.87451172 C138.80397018 159.8652262 138.83913731 168.85486707 138.89753419 177.84537685 C138.94582477 185.56101619 138.9632114 193.27631131 138.95605963 200.99209797 C138.95217574 205.60188902 138.96033735 210.21087197 138.99866676 214.82052231 C139.03347047 219.1564902 139.02973334 223.49073979 138.99632835 227.82670212 C138.99054397 229.4178217 138.99841212 231.00905831 139.02093506 232.60002899 C139.1788102 244.59343559 139.1788102 244.59343559 136.25852013 248.07794571 C133.0521453 250.19315847 130.85495912 251 127 251 C127 251.66 127 252.32 127 253 C126.113125 253.391875 125.22625 253.78375 124.3125 254.1875 C120.92806846 255.83784924 120.92806846 255.83784924 118.5 258.5 C115.79893411 261.20106589 113.41486173 262.33247219 110 264 C108.21681716 265.08410963 106.44688285 266.19017798 104.6875 267.3125 C98.15853586 271.41404146 91.42983613 275.13801153 84.6875 278.875 C76.82944664 283.23099405 69.1220084 287.70908732 61.57226562 292.57788086 C56.29117722 295.9346832 50.79697287 298.74039039 45.13647461 301.40185547 C41.43912576 303.15036984 41.43912576 303.15036984 38.30078125 305.72265625 C37 307 37 307 33 307 C33 307.66 33 308.32 33 309 C32.47269287 309.28609131 31.94538574 309.57218262 31.40209961 309.86694336 C28.91206469 311.2204523 26.42460597 312.5786166 23.9375 313.9375 C23.03241699 314.43024414 22.12733398 314.92298828 21.19482422 315.43066406 C16.91105615 317.7799003 12.67345483 320.1585651 8.54296875 322.76953125 C7.87595947 323.18920166 7.2089502 323.60887207 6.52172852 324.04125977 C5.28746337 324.82782776 4.06202777 325.62848497 2.84741211 326.44506836 C0.11469556 328.18298889 -1.68824372 329.00123713 -4.953125 328.98828125 C-8.7585586 327.75395471 -11.96247872 325.99997372 -15.375 323.9375 C-16.01566406 323.56044922 -16.65632812 323.18339844 -17.31640625 322.79492188 C-18.88254066 321.87160383 -20.44198034 320.93694607 -22 320 C-22 319.34 -22 318.68 -22 318 C-22.72574219 317.88785156 -23.45148438 317.77570313 -24.19921875 317.66015625 C-27.12563993 316.97038613 -29.22287809 315.94489186 -31.8125 314.4375 C-32.60269531 313.98246094 -33.39289063 313.52742188 -34.20703125 313.05859375 C-34.79871094 312.70925781 -35.39039063 312.35992187 -36 312 C-36 311.34 -36 310.68 -36 310 C-37.11181641 309.83564453 -37.11181641 309.83564453 -38.24609375 309.66796875 C-41.13876604 308.96634185 -42.68301031 308.05929301 -45.0625 306.3125 C-49.50800752 303.2177143 -54.12950989 300.83218631 -59.0078125 298.4921875 C-62.41817711 296.79145737 -65.70875445 294.91699128 -69 293 C-69.68239746 292.6066748 -70.36479492 292.21334961 -71.06787109 291.80810547 C-73.25717813 290.54483421 -75.44140742 289.27311935 -77.625 288 C-78.36234375 287.57460938 -79.0996875 287.14921875 -79.859375 286.7109375 C-82.96367829 284.89731228 -85.8495639 283.12061396 -88.66015625 280.8671875 C-91.25999838 278.79252216 -93.79792269 277.52801082 -96.8125 276.125 C-106.6623605 271.38237417 -116.2229245 265.86673366 -125.42552185 259.97137451 C-127.99043461 258.42890498 -130.38020684 257.54810464 -133.25994873 256.75234985 C-138.62895037 254.97152111 -142.76945373 252.7700077 -146 248 C-149.3115563 237.03006517 -148.53797698 224.83822011 -148.4481914 213.49008346 C-148.42861733 209.78970182 -148.46162864 206.09052466 -148.49425179 202.39029294 C-148.57026207 193.65326466 -148.55870282 184.919384 -148.4909668 176.18237305 C-148.42270849 167.1949062 -148.49648999 158.21664062 -148.64160198 149.2302925 C-148.76183143 141.49085335 -148.79584701 133.75427782 -148.76134259 126.01398355 C-148.74145147 121.40107401 -148.75250826 116.79388805 -148.8456707 112.18175316 C-149.35309872 84.35554207 -149.35309872 84.35554207 -143.87456131 77.23913956 C-138.77467643 72.82562273 -133.17031158 70.30260756 -126.85284328 68.09019566 C-122.18284541 66.3055861 -118.01197536 63.71166029 -113.75 61.125 C-112.02790043 60.14355383 -110.3053856 59.16283493 -108.58203125 58.18359375 C-102.18685126 54.54194228 -95.81161109 50.86585157 -89.4375 47.1875 C-88.37950195 46.57729004 -87.32150391 45.96708008 -86.23144531 45.33837891 C-77.16823877 40.10676031 -68.12597559 34.8400609 -59.10546875 29.53515625 C-40.96618016 18.88257029 -40.96618016 18.88257029 -32.5625 14.5 C-27.88975541 12.05707457 -23.52657392 9.43718589 -19.18359375 6.45703125 C-16.60544673 4.73672921 -13.98924866 3.12543378 -11.3125 1.5625 C-10.44238281 1.04816406 -9.57226562 0.53382812 -8.67578125 0.00390625 C-5.294463 -1.26470512 -3.45781172 -0.95215105 0 0 Z M-11.671875 11.0078125 C-12.79907959 11.65782227 -13.92628418 12.30783203 -15.08764648 12.97753906 C-16.3085338 13.69318401 -17.52931572 14.40900878 -18.75 15.125 C-20.01266937 15.85719227 -21.2757772 16.58862889 -22.53930664 17.31933594 C-25.75442701 19.18153145 -28.96352284 21.05382654 -32.17047119 22.93005371 C-34.92805137 24.54274364 -37.68880433 26.14998006 -40.44921875 27.7578125 C-43.43849493 29.50023126 -46.42702735 31.24387363 -49.41357422 32.9909668 C-56.56288536 37.17240364 -63.74243476 41.29782021 -70.93847656 45.39819336 C-77.86744269 49.34785994 -84.78022788 53.32502439 -91.6875 57.3125 C-92.76684814 57.93552002 -93.84619629 58.55854004 -94.95825195 59.20043945 C-100.08385183 62.15974806 -105.20863485 65.12046805 -110.33287048 68.08213806 C-112.10238687 69.10472808 -113.87208446 70.12700374 -115.6418457 71.14916992 C-117.85690446 72.42862681 -120.07160864 73.70869785 -122.28588867 74.98950195 C-123.29627197 75.57304443 -124.30665527 76.15658691 -125.34765625 76.7578125 C-126.66262085 77.51795654 -126.66262085 77.51795654 -128.00415039 78.29345703 C-131.98472785 80.56093616 -135.99539989 82.77522216 -140 85 C-140 137.14 -140 189.28 -140 243 C-131.09 247.95 -122.18 252.9 -113 258 C-105.96718174 262.07542802 -98.94008842 266.15447378 -91.93408203 270.27490234 C-77.2166463 278.92803938 -62.44477054 287.48248881 -47.61401367 295.93969727 C-39.25109119 300.70920429 -30.90153898 305.50135617 -22.5625 310.3125 C-21.47275879 310.9408374 -20.38301758 311.5691748 -19.26025391 312.21655273 C-11.10610181 316.92416465 -11.10610181 316.92416465 -8.55053711 318.75073242 C-5.20195888 320.39088508 -3.54799354 320.00933302 0 319 C2.51280661 317.87124816 2.51280661 317.87124816 4.921875 316.3671875 C5.85153076 315.81595215 6.78118652 315.2647168 7.73901367 314.69677734 C9.2294519 313.79499756 9.2294519 313.79499756 10.75 312.875 C12.90709316 311.59297752 15.06466185 310.31175486 17.22265625 309.03125 C18.89545654 308.03351563 18.89545654 308.03351563 20.60205078 307.015625 C26.10223689 303.75297688 31.64441839 300.56404591 37.1875 297.375 C38.27901367 296.74577637 39.37052734 296.11655273 40.49511719 295.46826172 C47.99781195 291.14496003 55.51373464 286.8451778 63.03466797 282.55371094 C79.68606532 273.04675929 96.29039345 263.45732677 112.8215332 253.74267578 C119.15628388 250.03199459 125.54791034 246.51932163 132 243 C132 190.86 132 138.72 132 85 C125.4 81.37 118.8 77.74 112 74 C108.15307838 71.78898663 104.31860583 69.57023654 100.5 67.3125 C91.70182767 62.14559434 82.86576548 57.04962768 74 52 C64.28873992 46.46648918 54.61101064 40.878891 44.96386719 35.23413086 C36.35551795 30.19918068 27.72026172 25.21187878 19.07763672 20.23608398 C17.56194092 19.36318726 17.56194092 19.36318726 16.015625 18.47265625 C15.02884766 17.90691895 14.04207031 17.34118164 13.02539062 16.75830078 C10.90766812 15.52751984 8.80313572 14.2738905 6.70898438 13.00341797 C5.64486328 12.36162598 4.58074219 11.71983398 3.484375 11.05859375 C2.52756836 10.47263428 1.57076172 9.8866748 0.58496094 9.28295898 C-4.38046812 6.81853419 -7.22625783 8.42230119 -11.671875 11.0078125 Z " fill="#D3D9DA" transform="translate(218,11)"/>
<path d="M0 0 C3.375 0.25 3.375 0.25 7 1 C7.309375 1.639375 7.61875 2.27875 7.9375 2.9375 C8.79169331 5.16283357 8.79169331 5.16283357 10.88671875 5.70703125 C12.91085279 6.19805155 14.95511035 6.60421491 17 7 C17 11.62 17 16.24 17 21 C17.66 21.33 18.32 21.66 19 22 C18.505 22.433125 18.01 22.86625 17.5 23.3125 C15.66781808 24.99740483 15.66781808 24.99740483 16 28 C16 35.66666667 16 43.33333333 16 51 C14.55361764 51.04060021 13.10690744 51.06963987 11.66015625 51.09375 C10.85457275 51.11115234 10.04898926 51.12855469 9.21899414 51.14648438 C6.38475611 50.95938537 4.94953891 50.03430147 3 48 C2.505 48.99 2.505 48.99 2 50 C-0.99156413 50.91628029 -3.88138755 51.22939006 -7 51 C-10.3021006 48.11066197 -10.92980942 46.28076233 -12 42 C-12.33 44.97 -12.66 47.94 -13 51 C-13.99 51 -14.98 51 -16 51 C-16 47.04 -16 43.08 -16 39 C-17.98 39 -19.96 39 -22 39 C-22 42.96 -22 46.92 -22 51 C-22.66 51 -23.32 51 -24 51 C-24.33 50.34 -24.66 49.68 -25 49 C-25.66 49 -26.32 49 -27 49 C-27 47.68 -27 46.36 -27 45 C-27.33 46.98 -27.66 48.96 -28 51 C-28.99 51 -29.98 51 -31 51 C-31.495 48.525 -31.495 48.525 -32 46 C-32 47.32 -32 48.64 -32 50 C-34.97 50.495 -34.97 50.495 -38 51 C-38.433125 50.34 -38.86625 49.68 -39.3125 49 C-39.869375 48.34 -40.42625 47.68 -41 47 C-41.99 47 -42.98 47 -44 47 C-44.99 49.475 -44.99 49.475 -46 52 C-47.32 51.67 -48.64 51.34 -50 51 C-50 46.38 -50 41.76 -50 37 C-47.525 36.505 -47.525 36.505 -45 36 C-44.01 35.34 -43.02 34.68 -42 34 C-41.67 34.99 -41.34 35.98 -41 37 C-40.34 37 -39.68 37 -39 37 C-39 35.68 -39 34.36 -39 33 C-38.34 33 -37.68 33 -37 33 C-36.67 33.66 -36.34 34.32 -36 35 C-35.071875 34.175 -34.14375 33.35 -33.1875 32.5 C-30.375 30 -30.375 30 -27 30 C-26.3185177 28.10820797 -26.3185177 28.10820797 -26 26 C-26.66 25.34 -27.32 24.68 -28 24 C-28 23.01 -28 22.02 -28 21 C-24.7 21 -21.4 21 -18 21 C-18 20.01 -18 19.02 -18 18 C-19.6396875 17.3503125 -19.6396875 17.3503125 -21.3125 16.6875 C-26.51034336 14.42069205 -26.51034336 14.42069205 -28 12 C-27.86220155 9.24403096 -27.43764263 7.59202142 -25.79296875 5.3671875 C-23.3043035 3.46951247 -21.53501055 3.60025291 -18.4375 3.625 C-17.46683594 3.61726563 -16.49617188 3.60953125 -15.49609375 3.6015625 C-14.67238281 3.73304687 -13.84867188 3.86453125 -13 4 C-12.34 4.99 -11.68 5.98 -11 7 C-10.34 6.34 -9.68 5.68 -9 5 C-7.01178687 4.60235737 -5.01055661 4.26224651 -3 4 C-3 3.34 -3 2.68 -3 2 C-2.01 2 -1.02 2 0 2 C0 1.34 0 0.68 0 0 Z " fill="#424C59" transform="translate(244,59)"/>
<path d="M0 0 C2.5625 1.4375 2.5625 1.4375 4 4 C4.52132265 8.24724631 4.35433637 11.93699088 3 16 C3.66 16 4.32 16 5 16 C6.10514766 12.68455701 6.32107631 9.79589889 6.5625 6.3125 C6.64628906 5.13300781 6.73007813 3.95351562 6.81640625 2.73828125 C6.90728516 1.38283203 6.90728516 1.38283203 7 0 C9.31 0 11.62 0 14 0 C14 4.29 14 8.58 14 13 C15.32 13 16.64 13 18 13 C18 8.71 18 4.42 18 0 C19.98 0 21.96 0 24 0 C24 5.94 24 11.88 24 18 C22.02 18 20.04 18 18 18 C18 18.66 18 19.32 18 20 C16.68 20 15.36 20 14 20 C13.67 21.98 13.34 23.96 13 26 C13.33 25.67 13.66 25.34 14 25 C16.5 24.875 16.5 24.875 19 25 C20.79087328 26.79087328 20 29.58626951 20 32 C20.33 32.33 20.66 32.66 21 33 C21.08631874 34.34267413 21.10706473 35.68974322 21.09765625 37.03515625 C21.09443359 37.84404297 21.09121094 38.65292969 21.08789062 39.48632812 C21.07532227 40.7615332 21.07532227 40.7615332 21.0625 42.0625 C21.05798828 42.91650391 21.05347656 43.77050781 21.04882812 44.65039062 C21.03700373 46.76695663 21.01906769 48.88348685 21 51 C18.36 51 15.72 51 13 51 C12.505 44.565 12.505 44.565 12 38 C10.35 38 8.7 38 7 38 C7 40.64 7 43.28 7 46 C8.32 46 9.64 46 11 46 C11 47.65 11 49.3 11 51 C4.9453125 51.1953125 4.9453125 51.1953125 3 51 C1 49 1 49 0.8046875 46.3984375 C0.82789063 45.40070313 0.85109375 44.40296875 0.875 43.375 C0.89304688 42.37210938 0.91109375 41.36921875 0.9296875 40.3359375 C0.95289063 39.56507813 0.97609375 38.79421875 1 38 C0.01 38 -0.98 38 -2 38 C-2 36.68 -2 35.36 -2 34 C-1.01 33.505 -1.01 33.505 0 33 C0.65772428 29.97065509 0.65772428 29.97065509 1 27 C-0.32 26.67 -1.64 26.34 -3 26 C-3.33 27.65 -3.66 29.3 -4 31 C-5.65 31 -7.3 31 -9 31 C-9.75 28.75 -9.75 28.75 -10 26 C-8.1875 23.6875 -8.1875 23.6875 -6 22 C-5.34 22 -4.68 22 -4 22 C-4 21.34 -4 20.68 -4 20 C-5.3921875 19.3503125 -5.3921875 19.3503125 -6.8125 18.6875 C-11.58385093 16.16149068 -11.58385093 16.16149068 -13 14 C-14.53571429 7.19897959 -14.53571429 7.19897959 -12.6875 3.0625 C-9.33455572 -1.03554301 -4.94951507 -0.59780999 0 0 Z " fill="#3F4A55" transform="translate(213,150)"/>
<path d="M0 0 C0.99 0.33 1.98 0.66 3 1 C3 1.99 3 2.98 3 4 C-0.3 4 -3.6 4 -7 4 C-6.33772394 7.11103016 -6.33772394 7.11103016 -3.96875 8.1328125 C-2.74671875 8.62394531 -2.74671875 8.62394531 -1.5 9.125 C2.93582888 10.93582888 2.93582888 10.93582888 4 12 C4.26293056 16.03160191 4.29404844 17.55892734 2 21 C2 21.66 2 22.32 2 23 C2.66 23 3.32 23 4 23 C3.505 21.515 3.505 21.515 3 20 C4.65 20.33 6.3 20.66 8 21 C8 21.66 8 22.32 8 23 C9.32 23 10.64 23 12 23 C12 23.99 12 24.98 12 26 C12.99 26.66 13.98 27.32 15 28 C14.34 28.99 13.68 29.98 13 31 C13.825 31.556875 14.65 32.11375 15.5 32.6875 C18 35 18 35 18.3125 37.75 C18.209375 38.4925 18.10625 39.235 18 40 C15.03 40 12.06 40 9 40 C9.495 41.98 9.495 41.98 10 44 C12.64 44.33 15.28 44.66 18 45 C16 47 16 47 13.125 47.4375 C10 47 10 47 7.6875 44.75 C6 42 6 42 5 38 C4.67 40.97 4.34 43.94 4 47 C3.01 47 2.02 47 1 47 C1 43.04 1 39.08 1 35 C-0.98 35 -2.96 35 -5 35 C-5 38.96 -5 42.92 -5 47 C-5.66 47 -6.32 47 -7 47 C-7.33 46.34 -7.66 45.68 -8 45 C-8.66 45 -9.32 45 -10 45 C-10 43.68 -10 42.36 -10 41 C-10.33 42.98 -10.66 44.96 -11 47 C-11.99 47 -12.98 47 -14 47 C-14.495 44.525 -14.495 44.525 -15 42 C-15 43.32 -15 44.64 -15 46 C-17.97 46.495 -17.97 46.495 -21 47 C-21.433125 46.34 -21.86625 45.68 -22.3125 45 C-22.869375 44.34 -23.42625 43.68 -24 43 C-24.99 43 -25.98 43 -27 43 C-27.99 45.475 -27.99 45.475 -29 48 C-30.32 47.67 -31.64 47.34 -33 47 C-33 42.38 -33 37.76 -33 33 C-30.525 32.505 -30.525 32.505 -28 32 C-27.01 31.34 -26.02 30.68 -25 30 C-24.67 30.99 -24.34 31.98 -24 33 C-23.34 33 -22.68 33 -22 33 C-22 31.68 -22 30.36 -22 29 C-21.34 29 -20.68 29 -20 29 C-19.67 29.66 -19.34 30.32 -19 31 C-18.071875 30.175 -17.14375 29.35 -16.1875 28.5 C-13.375 26 -13.375 26 -10 26 C-9.3185177 24.10820797 -9.3185177 24.10820797 -9 22 C-9.66 21.34 -10.32 20.68 -11 20 C-11 19.01 -11 18.02 -11 17 C-7.7 17 -4.4 17 -1 17 C-1 16.01 -1 15.02 -1 14 C-2.6396875 13.3503125 -2.6396875 13.3503125 -4.3125 12.6875 C-9.51034336 10.42069205 -9.51034336 10.42069205 -11 8 C-10.86210522 5.24210449 -10.32821535 3.52879139 -8.875 1.1875 C-5.95106253 -0.66432706 -3.37530305 -0.24109308 0 0 Z " fill="#505964" transform="translate(227,63)"/>
<path d="M0 0 C2.75201561 1.19590207 5.3400187 2.60238271 8 4 C8 8.95 8 13.9 8 19 C-0.0171371 23.98034274 -0.0171371 23.98034274 -4.125 24.0625 C-7.72101326 22.73353858 -10.74070977 21.02075994 -14 19 C-14 14.05 -14 9.1 -14 4 C-4.91941392 -1.55677656 -4.91941392 -1.55677656 0 0 Z " fill="#E89A35" transform="translate(251,62)"/>
<path d="M0 0 C0.66 0 1.32 0 2 0 C2 0.99 2 1.98 2 3 C2.33 2.34 2.66 1.68 3 1 C5.64860427 0.40644386 8.29197322 0.25790731 11 0 C10.01 0.66 9.02 1.32 8 2 C7.27617533 4.05925139 7.27617533 4.05925139 7 6 C9.64 6 12.28 6 15 6 C15 10.29 15 14.58 15 19 C14.67 19 14.34 19 14 19 C14 15.04 14 11.08 14 7 C11.69 7 9.38 7 7 7 C7 11.29 7 15.58 7 20 C6.34 20 5.68 20 5 20 C4.67 19.34 4.34 18.68 4 18 C3.34 18 2.68 18 2 18 C2 16.68 2 15.36 2 14 C1.67 15.98 1.34 17.96 1 20 C0.01 20 -0.98 20 -2 20 C-2.495 17.525 -2.495 17.525 -3 15 C-3 16.32 -3 17.64 -3 19 C-4.98 19.33 -6.96 19.66 -9 20 C-9.433125 19.34 -9.86625 18.68 -10.3125 18 C-11.1478125 17.01 -11.1478125 17.01 -12 16 C-12.99 16 -13.98 16 -15 16 C-15.99 18.475 -15.99 18.475 -17 21 C-18.32 20.67 -19.64 20.34 -21 20 C-21 15.38 -21 10.76 -21 6 C-19.35 5.67 -17.7 5.34 -16 5 C-15.01 4.34 -14.02 3.68 -13 3 C-12.67 3.99 -12.34 4.98 -12 6 C-11.34 6 -10.68 6 -10 6 C-10 4.68 -10 3.36 -10 2 C-9.34 2 -8.68 2 -8 2 C-7.67 2.66 -7.34 3.32 -7 4 C-6.54625 3.505 -6.0925 3.01 -5.625 2.5 C-4 1 -4 1 -2 1 C-2 1.66 -2 2.32 -2 3 C-1.01 3 -0.02 3 1 3 C0.67 2.01 0.34 1.02 0 0 Z " fill="#434A56" transform="translate(215,90)"/>
<path d="M0 0 C1.66611905 -0.042721 3.33382885 -0.04063832 5 0 C6.79087328 1.79087328 6 4.58626951 6 7 C6.33 7.33 6.66 7.66 7 8 C7.08631874 9.34267413 7.10706473 10.68974322 7.09765625 12.03515625 C7.09443359 12.84404297 7.09121094 13.65292969 7.08789062 14.48632812 C7.07951172 15.33646484 7.07113281 16.18660156 7.0625 17.0625 C7.05798828 17.91650391 7.05347656 18.77050781 7.04882812 19.65039062 C7.03700373 21.76695663 7.01906769 23.88348685 7 26 C4.36 26 1.72 26 -1 26 C-1.33 21.71 -1.66 17.42 -2 13 C-3.65 13 -5.3 13 -7 13 C-7 15.64 -7 18.28 -7 21 C-5.68 21 -4.36 21 -3 21 C-3 22.65 -3 24.3 -3 26 C-9.0546875 26.1953125 -9.0546875 26.1953125 -11 26 C-13 24 -13 24 -13.1953125 21.3984375 C-13.17210937 20.40070313 -13.14890625 19.40296875 -13.125 18.375 C-13.10695312 17.37210938 -13.08890625 16.36921875 -13.0703125 15.3359375 C-13.04710937 14.56507813 -13.02390625 13.79421875 -13 13 C-13.99 13 -14.98 13 -16 13 C-16 9 -16 9 -14.5625 7.375 C-14.046875 6.92125 -13.53125 6.4675 -13 6 C-12.67 5.34 -12.34 4.68 -12 4 C-10.35 4 -8.7 4 -7 4 C-7 5.32 -7 6.64 -7 8 C-5.68 8 -4.36 8 -3 8 C-3 7.01 -3 6.02 -3 5 C-2.34 5 -1.68 5 -1 5 C-0.67 3.35 -0.34 1.7 0 0 Z " fill="#707880" transform="translate(227,175)"/>
<path d="M0 0 C0.66 0.33 1.32 0.66 2 1 C2.44444534 22.45276351 2.77917452 43.90476523 2.98443127 65.36120319 C3.08228497 75.32480841 3.21559446 85.28554881 3.43334961 95.24731445 C3.62312885 103.93341457 3.74539281 112.61744034 3.7876814 121.305556 C3.81239657 125.90446635 3.87014269 130.49744489 4.00887108 135.09444618 C4.82528406 163.17594434 4.82528406 163.17594434 0.04443741 169.64687729 C-4.95253344 174.02661997 -10.58365124 176.44157783 -17 178 C-17 177.01 -17 176.02 -17 175 C-14.03 174.01 -14.03 174.01 -11 173 C-11 172.34 -11 171.68 -11 171 C-10.195625 170.87625 -9.39125 170.7525 -8.5625 170.625 C-7.716875 170.41875 -6.87125 170.2125 -6 170 C-5.505 169.01 -5.505 169.01 -5 168 C-3.02 167.01 -3.02 167.01 -1 166 C-0.67 111.22 -0.34 56.44 0 0 Z " fill="#E8ECED" transform="translate(356,91)"/>
<path d="M0 0 C2.31 0 4.62 0 7 0 C7 8.58 7 17.16 7 26 C-3.546875 26.48828125 -3.546875 26.48828125 -7 26 C-9.53531566 23.66096684 -10.7591655 22.05010924 -11.53125 18.68359375 C-11.47970428 14.97874484 -11.39886209 12.65413383 -9.4375 9.4375 C-6.17847619 7.5155116 -3.71510114 7.71422299 0 8 C0 5.36 0 2.72 0 0 Z " fill="#E7EAEC" transform="translate(251,142)"/>
<path d="M0 0 C1.65 0 3.3 0 5 0 C5 1.65 5 3.3 5 5 C6.65 5 8.3 5 10 5 C10 6.32 10 7.64 10 9 C8.35 9 6.7 9 5 9 C5 11.64 5 14.28 5 17 C6.65 17 8.3 17 10 17 C10 18.65 10 20.3 10 22 C8.54257537 22.08096803 7.08387193 22.13917774 5.625 22.1875 C4.81289062 22.22230469 4.00078125 22.25710937 3.1640625 22.29296875 C2.44992188 22.19628906 1.73578125 22.09960938 1 22 C-1.92332269 17.61501596 -1.1356502 14.2225328 -1 9 C-4.3 9.33 -7.6 9.66 -11 10 C-11 11.98 -11 13.96 -11 16 C-8.69 16.33 -6.38 16.66 -4 17 C-4 18.32 -4 19.64 -4 21 C-7.2136411 22.60682055 -10.51460341 22.46150508 -14 22 C-16.5 20.625 -16.5 20.625 -18 18 C-18.60242402 14.54610228 -18.64751748 11.44960637 -18 8 C-16 5.375 -16 5.375 -13 4 C-8.93626079 3.46085044 -4.90695331 3.69768223 -1 5 C-0.67 3.35 -0.34 1.7 0 0 Z " fill="#F1F4F5" transform="translate(191,179)"/>
<path d="M0 0 C12.19342668 -0.4926637 12.19342668 -0.4926637 15.890625 1.765625 C18 4 18 4 18.62890625 6 C18.51362658 9.47195248 18.31357498 11.49828003 16.4375 14.5 C13.17971981 16.50478781 10.75217167 16.28862859 7 16 C7 18.64 7 21.28 7 24 C4.69 24 2.38 24 0 24 C0 16.08 0 8.16 0 0 Z " fill="#EBEDEF" transform="translate(120,177)"/>
<path d="M0 0 C0.66 0 1.32 0 2 0 C2 4.62 2 9.24 2 14 C2.66 14.33 3.32 14.66 4 15 C3.505 15.433125 3.01 15.86625 2.5 16.3125 C0.66781808 17.99740483 0.66781808 17.99740483 1 21 C1 28.66666667 1 36.33333333 1 44 C-0.43655854 44.08131463 -1.8744483 44.13933559 -3.3125 44.1875 C-4.51326172 44.23970703 -4.51326172 44.23970703 -5.73828125 44.29296875 C-8 44 -8 44 -9.77026367 42.609375 C-11.30390455 40.6022754 -11.37411281 39.50242806 -11.3125 37 C-11.30863281 36.319375 -11.30476562 35.63875 -11.30078125 34.9375 C-11 33 -11 33 -9 30 C-5.875 29.8125 -5.875 29.8125 -3 30 C-3.33 28.02 -3.66 26.04 -4 24 C-5.98 24.33 -7.96 24.66 -10 25 C-9.34 23.68 -8.68 22.36 -8 21 C-7.34 21 -6.68 21 -6 21 C-6 19.68 -6 18.36 -6 17 C-4.02 16.34 -2.04 15.68 0 15 C0 10.05 0 5.1 0 0 Z " fill="#848687" transform="translate(259,66)"/>
<path d="M0 0 C4.6 2.2 4.6 2.2 6 5 C6.68288206 11.94263424 6.68288206 11.94263424 4.0625 16 C0.48008358 18.33953725 -1.69676183 18.74316342 -5.90625 18.4765625 C-8 18 -8 18 -10.5625 16 C-12.40251016 12.15997879 -12.96007379 9.17716314 -12 5 C-8.60369897 0.05992578 -5.86842367 -0.83834624 0 0 Z " fill="#EFF0F2" transform="translate(248,183)"/>
<path d="M0 0 C2.5625 1.4375 2.5625 1.4375 4 4 C4.92715863 8.77843295 4.68348727 11.95341012 2 16.0625 C-2.16005119 18.74919973 -4.10298688 18.6995733 -9 18 C-11.67298737 16.3550847 -12.66006077 15.13077009 -13.5625 12.12890625 C-14.22357614 8.4861013 -14.22308206 6.4992789 -12.6875 3.0625 C-9.33455572 -1.03554301 -4.94951507 -0.59780999 0 0 Z " fill="#F2F4F6" transform="translate(213,150)"/>
<path d="M0 0 C3.625 0.25 3.625 0.25 5.5625 1.4375 C6.95351983 3.81041618 6.84417317 5.54686424 6.625 8.25 C3.655 8.25 0.685 8.25 -2.375 8.25 C-1.715 9.57 -1.055 10.89 -0.375 12.25 C3.18706661 13.06870185 3.18706661 13.06870185 6.625 13.25 C4.625 15.25 4.625 15.25 1.25 15.3125 C0.05375 15.291875 -1.1425 15.27125 -2.375 15.25 C-3.035 15.45625 -3.695 15.6625 -4.375 15.875 C-7.658187 16.49059756 -10.28535523 15.33709724 -13.375 14.25 C-15.375 12.25 -15.375 12.25 -15.6875 8.3125 C-15.60287031 5.85823911 -15.48092691 4.46185383 -14.375 2.25 C-11.12614822 0.62557411 -7.9746913 1.13388093 -4.375 1.25 C-3.375 0.25 -3.375 0.25 0 0 Z " fill="#727A83" transform="translate(184.375,94.75)"/>
<path d="M0 0 C0.99 0 1.98 0 3 0 C4.32 4.29 5.64 8.58 7 13 C7.474375 11.22625 7.94875 9.4525 8.4375 7.625 C9.875 2.25 9.875 2.25 11 0 C12.65 0.33 14.3 0.66 16 1 C16.99 4.63 17.98 8.26 19 12 C19.99 8.04 20.98 4.08 22 0 C23.32 0 24.64 0 26 0 C25.35346673 6.95023264 23.13972752 13.38177303 21 20 C19.35 19.67 17.7 19.34 16 19 C15.01 15.04 14.02 11.08 13 7 C12.01 10.96 11.02 14.92 10 19 C8.35 19.33 6.7 19.66 5 20 C4.15960114 17.41877492 3.32749444 14.83536099 2.5 12.25 C2.26152344 11.52039063 2.02304688 10.79078125 1.77734375 10.0390625 C1.55175781 9.33007812 1.32617188 8.62109375 1.09375 7.890625 C0.88427734 7.24125977 0.67480469 6.59189453 0.45898438 5.92285156 C0 4 0 4 0 0 Z " fill="#E7ECEE" transform="translate(188,64)"/>
<path d="M0 0 C0 1.65 0 3.3 0 5 C-1.27875 5.12375 -2.5575 5.2475 -3.875 5.375 C-7.34790936 5.69042399 -7.34790936 5.69042399 -10 8 C-10.34216235 12.65194714 -10.34216235 12.65194714 -9 17 C-6.87423218 17.46651207 -6.87423218 17.46651207 -4.4375 17.625 C-3.61121094 17.69976562 -2.78492188 17.77453125 -1.93359375 17.8515625 C-1.29550781 17.90054688 -0.65742188 17.94953125 0 18 C0 19.65 0 21.3 0 23 C-3.4597331 24.72986655 -7.21710799 24.48431489 -11 24 C-14.33600367 21.94161475 -15.8262176 20.2606736 -18 17 C-18.76811563 12.77536404 -18.74354524 8.78324834 -17.078125 4.7890625 C-12.74256279 -1.45924774 -6.99890621 -0.71348073 0 0 Z " fill="#F0F3F4" transform="translate(186,144)"/>
<path d="M0 0 C2.2109375 1.50390625 2.2109375 1.50390625 4 4 C4.44888571 6.86596259 4.69425198 9.3815111 4.75 12.25 C4.77964844 12.99507812 4.80929688 13.74015625 4.83984375 14.5078125 C4.9102343 16.33796672 4.95741832 18.16898769 5 20 C3.68 20 2.36 20 1 20 C0.01 20.33 -0.98 20.66 -2 21 C-4.7635072 21.28455916 -7.19366639 21.17817991 -10 21 C-12.31282587 17.53076119 -12.42478586 16.07794425 -12 12 C-10.7734375 10.32421875 -10.7734375 10.32421875 -9 9 C-6.73828125 8.70703125 -6.73828125 8.70703125 -4.3125 8.8125 C-3.10013672 8.85310547 -3.10013672 8.85310547 -1.86328125 8.89453125 C-1.24839844 8.92933594 -0.63351563 8.96414062 0 9 C-0.33 7.68 -0.66 6.36 -1 5 C-4.3 5 -7.6 5 -11 5 C-10.67 3.68 -10.34 2.36 -10 1 C-6.87057535 -0.56471233 -3.38917777 -0.69701958 0 0 Z " fill="#EEF2F4" transform="translate(181,63)"/>
<path d="M0 0 C2.248125 -0.04125 4.49625 -0.0825 6.8125 -0.125 C8.07707031 -0.14820313 9.34164063 -0.17140625 10.64453125 -0.1953125 C14 0 14 0 17 2 C17.22107787 4.7885289 17.28107535 7.34653181 17.1875 10.125 C17.16719727 11.25615234 17.16719727 11.25615234 17.14648438 12.41015625 C17.11109985 14.27374127 17.05729167 16.13695978 17 18 C14.69 18 12.38 18 10 18 C10 13.71 10 9.42 10 5 C8.68 5 7.36 5 6 5 C6 9.29 6 13.58 6 18 C4.02 18 2.04 18 0 18 C0 12.06 0 6.12 0 0 Z " fill="#E7EAED" transform="translate(257,183)"/>
<path d="M0 0 C1.15628906 -0.03867188 1.15628906 -0.03867188 2.3359375 -0.078125 C5.3722904 0.35712013 6.58663681 0.93032424 8.625 3.25 C8.92142569 5.96229503 9.00561189 8.24739732 8.875 10.9375 C8.85695312 11.63939453 8.83890625 12.34128906 8.8203125 13.06445312 C8.77326213 14.79355436 8.70151873 16.52195205 8.625 18.25 C6.33358714 18.30384521 4.04181812 18.34272087 1.75 18.375 C0.47382813 18.39820313 -0.80234375 18.42140625 -2.1171875 18.4453125 C-5.375 18.25 -5.375 18.25 -7.375 16.25 C-7.75 13.3125 -7.75 13.3125 -7.375 10.25 C-5.1543949 7.782661 -3.93930797 7.28847554 -0.625 7.0625 C0.48875 7.1553125 0.48875 7.1553125 1.625 7.25 C1.625 6.59 1.625 5.93 1.625 5.25 C-1.015 5.25 -3.655 5.25 -6.375 5.25 C-6.375 3.93 -6.375 2.61 -6.375 1.25 C-4.06222219 0.09361109 -2.57408779 0.05131072 0 0 Z " fill="#EDF1F2" transform="translate(161.375,182.75)"/>
<path d="M0 0 C2.31 0 4.62 0 7 0 C7 4.29 7 8.58 7 13 C8.32 13 9.64 13 11 13 C11 8.71 11 4.42 11 0 C12.98 0 14.96 0 17 0 C17 5.61 17 11.22 17 17 C14.69 17 12.38 17 10 17 C8.7625 17.226875 7.525 17.45375 6.25 17.6875 C3 18 3 18 1.30859375 17 C-0.69198229 13.94240319 -0.31572957 10.83388118 -0.1875 7.3125 C-0.17396484 6.61060547 -0.16042969 5.90871094 -0.14648438 5.18554688 C-0.11120182 3.45670171 -0.05739583 1.72825235 0 0 Z " fill="#ECEFF1" transform="translate(220,150)"/>
<path d="M0 0 C3.375 0.3125 3.375 0.3125 7 1 C7.66 1.99 8.32 2.98 9 4 C7.989375 3.7525 6.97875 3.505 5.9375 3.25 C0.82472816 2.92537957 -0.7780995 4.26818203 -5 7 C-5.66 7 -6.32 7 -7 7 C-7 11.95 -7 16.9 -7 22 C-5.35 22.66 -3.7 23.32 -2 24 C-1.38125 24.391875 -0.7625 24.78375 -0.125 25.1875 C3.06175032 26.40596336 5.71661887 25.63141945 9 25 C9 25.99 9 26.98 9 28 C2.05173678 28.66173935 -1.51116995 27.64857066 -7.25 23.703125 C-9 22 -9 22 -10 18 C-10.99 20.97 -11.98 23.94 -13 27 C-13.66 27 -14.32 27 -15 27 C-15 26.34 -15 25.68 -15 25 C-15.66 24.67 -16.32 24.34 -17 24 C-16.01 23.34 -15.02 22.68 -14 22 C-13.7497843 18.91634129 -13.7497843 18.91634129 -14 16 C-17.3 14.35 -20.6 12.7 -24 11 C-24 10.01 -24 9.02 -24 8 C-17.375 6.875 -17.375 6.875 -14 8 C-14 7.01 -14 6.02 -14 5 C-14.99 4.67 -15.98 4.34 -17 4 C-14.5625 4.375 -14.5625 4.375 -12 5 C-11.67 5.66 -11.34 6.32 -11 7 C-10.34 6.34 -9.68 5.68 -9 5 C-7.01178687 4.60235737 -5.01055661 4.26224651 -3 4 C-3 3.34 -3 2.68 -3 2 C-2.01 2 -1.02 2 0 2 C0 1.34 0 0.68 0 0 Z " fill="#495158" transform="translate(244,59)"/>
<path d="M0 0 C2.4375 1.5625 2.4375 1.5625 4 4 C4.25 7.75 4.25 7.75 4 11 C0.7 11 -2.6 11 -6 11 C-5.67 11.66 -5.34 12.32 -5 13 C-2.36 13 0.28 13 3 13 C2.67 14.65 2.34 16.3 2 18 C-6.8404908 18.60736196 -6.8404908 18.60736196 -10.625 16.625 C-12.79041764 12.49102086 -12.86232736 8.5536936 -12 4 C-8.61484823 -0.30837498 -5.30297138 -0.77134129 0 0 Z " fill="#E1E4E7" transform="translate(289,183)"/>
<path d="M0 0 C0.66 0 1.32 0 2 0 C2 1.32 2 2.64 2 4 C3.32 4 4.64 4 6 4 C6 4.66 6 5.32 6 6 C4.68 6 3.36 6 2 6 C2 9.3 2 12.6 2 16 C3.32 16.33 4.64 16.66 6 17 C4.35 17.33 2.7 17.66 1 18 C0.566875 17.34 0.13375 16.68 -0.3125 16 C-1.1478125 15.01 -1.1478125 15.01 -2 14 C-2.99 14 -3.98 14 -5 14 C-5.66 15.65 -6.32 17.3 -7 19 C-8.32 18.67 -9.64 18.34 -11 18 C-11 13.38 -11 8.76 -11 4 C-9.35 3.67 -7.7 3.34 -6 3 C-5.01 2.34 -4.02 1.68 -3 1 C-2.67 1.99 -2.34 2.98 -2 4 C-1.34 4 -0.68 4 0 4 C0 2.68 0 1.36 0 0 Z " fill="#505864" transform="translate(205,92)"/>
<path d="M0 0 C1.98 0 3.96 0 6 0 C6.33 1.32 6.66 2.64 7 4 C8.65 4 10.3 4 12 4 C12.33 3.01 12.66 2.02 13 1 C13 1.99 13 2.98 13 4 C13.66 4 14.32 4 15 4 C14.68950274 5.43793392 14.3765224 6.8753318 14.0625 8.3125 C13.88847656 9.11300781 13.71445312 9.91351563 13.53515625 10.73828125 C13 13 13 13 12 16 C13.32 16 14.64 16 16 16 C16 15.34 16 14.68 16 14 C17.32 14 18.64 14 20 14 C19.67 15.32 19.34 16.64 19 18 C17.865625 18.12375 16.73125 18.2475 15.5625 18.375 C13.7990625 18.684375 13.7990625 18.684375 12 19 C11.67 19.66 11.34 20.32 11 21 C7.39703406 21.41176754 6.21597933 21.1535853 3.1875 19 C2.465625 18.34 1.74375 17.68 1 17 C2.32 16.67 3.64 16.34 5 16 C5.33 11.71 5.66 7.42 6 3 C4.68 3 3.36 3 2 3 C2 5.31 2 7.62 2 10 C0.4375 8.375 0.4375 8.375 -1 6 C-0.6875 2.75 -0.6875 2.75 0 0 Z " fill="#2E3845" transform="translate(275,232)"/>
<path d="M0 0 C1.65 0 3.3 0 5 0 C5 1.65 5 3.3 5 5 C6.32 5 7.64 5 9 5 C9 6.32 9 7.64 9 9 C7.68 9 6.36 9 5 9 C5 11.64 5 14.28 5 17 C6.32 17 7.64 17 9 17 C9 18.65 9 20.3 9 22 C2.9453125 22.1953125 2.9453125 22.1953125 1 22 C-1 20 -1 20 -1.1953125 17.3984375 C-1.17210937 16.40070313 -1.14890625 15.40296875 -1.125 14.375 C-1.10695312 13.37210938 -1.08890625 12.36921875 -1.0703125 11.3359375 C-1.04710937 10.56507813 -1.02390625 9.79421875 -1 9 C-1.99 9 -2.98 9 -4 9 C-4 5 -4 5 -2.5625 3.375 C-2.046875 2.92125 -1.53125 2.4675 -1 2 C-0.67 1.34 -0.34 0.68 0 0 Z " fill="#F4F6F8" transform="translate(215,179)"/>
<path d="M0 0 C1.65 0.33 3.3 0.66 5 1 C5 5.95 5 10.9 5 16 C-3.5 21 -3.5 21 -8 21 C-8 20.01 -8 19.02 -8 18 C-8.66 18 -9.32 18 -10 18 C-10.33 16.68 -10.66 15.36 -11 14 C-10.01 14.33 -9.02 14.66 -8 15 C-7.79375 14.443125 -7.5875 13.88625 -7.375 13.3125 C-5.44999226 10.07498698 -2.96149098 8.31768859 0 6 C-0.2784375 4.7934375 -0.2784375 4.7934375 -0.5625 3.5625 C-0.706875 2.716875 -0.85125 1.87125 -1 1 C-0.67 0.67 -0.34 0.34 0 0 Z " fill="#E8992F" transform="translate(254,65)"/>
<path d="M0 0 C0.33 0 0.66 0 1 0 C1 51.81 1 103.62 1 157 C0.01 157 -0.98 157 -2 157 C-1.83826325 156.46972073 -1.67652651 155.93944145 -1.50988865 155.39309311 C-0.88342328 152.45286299 -0.85904033 149.71845797 -0.84178162 146.71051025 C-0.82709839 144.77121391 -0.82709839 144.77121391 -0.81211853 142.79273987 C-0.8062147 141.36215247 -0.80040423 139.93156468 -0.79467773 138.50097656 C-0.7850965 136.99301384 -0.77508627 135.4850538 -0.76467896 133.97709656 C-0.73765043 129.88450584 -0.71662975 125.79190362 -0.69667697 121.69927311 C-0.67480477 117.4217882 -0.64742211 113.14433868 -0.62062073 108.86688232 C-0.57071055 100.76740318 -0.5257655 92.66790438 -0.48259836 84.56838679 C-0.43321169 75.34716439 -0.37829886 66.1259775 -0.32291877 56.90478945 C-0.20912443 37.93655927 -0.10227983 18.96829558 0 0 Z " fill="#28303B" transform="translate(348,97)"/>
<path d="M0 0 C1.98 0 3.96 0 6 0 C6 6.6 6 13.2 6 20 C6.99 20 7.98 20 9 20 C8.67 21.65 8.34 23.3 8 25 C5.125 25.1875 5.125 25.1875 2 25 C-0.20192224 21.69711664 -0.23959968 20.72537273 -0.1953125 16.89453125 C-0.18886719 15.91162109 -0.18242187 14.92871094 -0.17578125 13.91601562 C-0.15902344 12.89185547 -0.14226562 11.86769531 -0.125 10.8125 C-0.11597656 9.77673828 -0.10695312 8.74097656 -0.09765625 7.67382812 C-0.0740786 5.11565315 -0.0411703 2.55794252 0 0 Z " fill="#F7F9FB" transform="translate(189,143)"/>
<path d="M0 0 C0.33 0 0.66 0 1 0 C1 7.59 1 15.18 1 23 C0.01 23.33 -0.98 23.66 -2 24 C-2 23.34 -2 22.68 -2 22 C-1.34 22 -0.68 22 0 22 C0 20.35 0 18.7 0 17 C-0.93972656 17.05220703 -0.93972656 17.05220703 -1.8984375 17.10546875 C-2.71570313 17.13253906 -3.53296875 17.15960938 -4.375 17.1875 C-5.18710938 17.22230469 -5.99921875 17.25710937 -6.8359375 17.29296875 C-7.55007812 17.19628906 -8.26421875 17.09960938 -9 17 C-11.46324069 13.30513897 -11.38991688 11.36706908 -11 7 C-10 5.0625 -10 5.0625 -8 4 C-5.28117977 3.76404716 -2.74042978 3.86522477 0 4 C0 2.68 0 1.36 0 0 Z " fill="#48525C" transform="translate(186,145)"/>
<path d="M0 0 C0.99 0.33 1.98 0.66 3 1 C3 1.99 3 2.98 3 4 C-0.3 4 -3.6 4 -7 4 C-6.33772394 7.11103016 -6.33772394 7.11103016 -3.96875 8.1328125 C-3.1540625 8.46023437 -2.339375 8.78765625 -1.5 9.125 C2.93582888 10.93582888 2.93582888 10.93582888 4 12 C4.3125 14.875 4.3125 14.875 4 18 C1.81571758 20.17419335 0.5021956 20.94293232 -2.578125 21.29296875 C-3.45984375 21.25816406 -4.3415625 21.22335938 -5.25 21.1875 C-6.14203125 21.16042969 -7.0340625 21.13335937 -7.953125 21.10546875 C-8.62859375 21.07066406 -9.3040625 21.03585938 -10 21 C-10.33 19.68 -10.66 18.36 -11 17 C-7.7 17 -4.4 17 -1 17 C-1 16.01 -1 15.02 -1 14 C-2.6396875 13.3503125 -2.6396875 13.3503125 -4.3125 12.6875 C-9.51034336 10.42069205 -9.51034336 10.42069205 -11 8 C-10.86210522 5.24210449 -10.32821535 3.52879139 -8.875 1.1875 C-5.95106253 -0.66432706 -3.37530305 -0.24109308 0 0 Z " fill="#EAEEF1" transform="translate(227,63)"/>
<path d="M0 0 C2.97 0 5.94 0 9 0 C8.484375 0.556875 7.96875 1.11375 7.4375 1.6875 C5.73610753 3.91984933 5.73610753 3.91984933 6.1875 6.625 C6.85676551 9.15020365 6.85676551 9.15020365 9 11 C11.31648799 12.03842565 13.64903024 13.0421975 16 14 C15.67 15.32 15.34 16.64 15 18 C10.83861737 18.08159574 7.0527516 17.98248524 3 17 C2.7525 17.639375 2.505 18.27875 2.25 18.9375 C1 21 1 21 -3 22 C-1.02 15.07 0.96 8.14 3 1 C2.01 0.67 1.02 0.34 0 0 Z " fill="#4B545E" transform="translate(211,63)"/>
<path d="M0 0 C2.62541413 2.20196024 2.9445448 3.61973579 3.4375 7 C3 10 3 10 1.4375 12.4375 C-1 14 -1 14 -4.625 13.875 C-8 13 -8 13 -10 11 C-10.30078125 8.90625 -10.30078125 8.90625 -10.3125 6.5 C-10.32925781 5.7059375 -10.34601563 4.911875 -10.36328125 4.09375 C-10.18345703 3.05734375 -10.18345703 3.05734375 -10 2 C-6.29584707 -0.46943529 -4.37855495 -0.46913089 0 0 Z " fill="#E3E8EB" transform="translate(259,235)"/>
<path d="M0 0 C3.5 0.4375 3.5 0.4375 5.4375 1.4375 C7.15750013 4.6751473 7.16976495 7.86542027 6.5 11.4375 C4.42744557 13.89386081 3.13630966 14.32614581 0 14.875 C-3.39834723 14.28028924 -4.51241034 13.23484842 -6.5 10.4375 C-6.98746608 7.09487548 -6.81565201 5.14307508 -5.4375 2.0625 C-3.5 0.4375 -3.5 0.4375 0 0 Z " fill="#E0E6EA" transform="translate(132.5,234.5625)"/>
<path d="M0 0 C7.25581395 -0.48372093 7.25581395 -0.48372093 10.5 1.625 C12.45562482 4.72140596 12.60024477 6.39853135 12 10 C10.5 12.375 10.5 12.375 8 14 C5.24150058 14.32638734 2.79515088 14.18634339 0 14 C0 9.38 0 4.76 0 0 Z " fill="#DDE1E4" transform="translate(184,235)"/>
<path d="M0 0 C-0.99 0 -1.98 0 -3 0 C-2.44119141 1.80597656 -2.44119141 1.80597656 -1.87109375 3.6484375 C-1.39284594 5.22384205 -0.91500223 6.79936931 -0.4375 8.375 C-0.19064453 9.1690625 0.05621094 9.963125 0.31054688 10.78125 C0.53935547 11.54179688 0.76816406 12.30234375 1.00390625 13.0859375 C1.21861572 13.7876709 1.4333252 14.4894043 1.65454102 15.21240234 C2 17 2 17 1 19 C0.67 19.99 0.34 20.98 0 22 C-1.670625 22.2165625 -1.670625 22.2165625 -3.375 22.4375 C-6.82142047 22.78372035 -6.82142047 22.78372035 -9 24 C-9.99 23.34 -10.98 22.68 -12 22 C-11.67 20.68 -11.34 19.36 -11 18 C-9.35 18.33 -7.7 18.66 -6 19 C-6.14086602 16.39547729 -6.28748464 13.79149803 -6.4375 11.1875 C-6.47681641 10.44951172 -6.51613281 9.71152344 -6.55664062 8.95117188 C-6.74381035 5.76928658 -6.98720793 3.03837622 -8 0 C-4.94736336 -0.98120464 -3.05263664 -0.98120464 0 0 Z " fill="#474F5A" transform="translate(191,64)"/>
<path d="M0 0 C0 1.98 0 3.96 0 6 C-1.98 6 -3.96 6 -6 6 C-6 9.96 -6 13.92 -6 18 C-7.98 18 -9.96 18 -12 18 C-12 12.39 -12 6.78 -12 1 C-9.69 1 -7.38 1 -5 1 C-3 0 -3 0 0 0 Z " fill="#F8FBFC" transform="translate(153,183)"/>
<path d="M0 0 C0 1.98 0 3.96 0 6 C-1.98 6 -3.96 6 -6 6 C-6 9.96 -6 13.92 -6 18 C-7.98 18 -9.96 18 -12 18 C-12 12.39 -12 6.78 -12 1 C-9.69 1 -7.38 1 -5 1 C-3 0 -3 0 0 0 Z " fill="#F8F9FB" transform="translate(308,183)"/>
<path d="M0 0 C2.475 0.495 2.475 0.495 5 1 C6.8125 4.0625 6.8125 4.0625 8 7 C8.33 4.69 8.66 2.38 9 0 C9.99 0 10.98 0 12 0 C12 4.29 12 8.58 12 13 C10.35 12.67 8.7 12.34 7 12 C6.34 11.01 5.68 10.02 5 9 C4.67 10.65 4.34 12.3 4 14 C2.68 14 1.36 14 0 14 C0 9.38 0 4.76 0 0 Z " fill="#E6EAEE" transform="translate(165,235)"/>
<path d="M0 0 C2.475 0.495 2.475 0.495 5 1 C6.3125 3.0625 6.3125 3.0625 7 5 C7.33 3.35 7.66 1.7 8 0 C9.32 0 10.64 0 12 0 C12 4.29 12 8.58 12 13 C10.35 13 8.7 13 7 13 C5.1875 10.5 5.1875 10.5 4 8 C3.67 9.65 3.34 11.3 3 13 C2.01 13 1.02 13 0 13 C0 8.71 0 4.42 0 0 Z " fill="#E8ECEF" transform="translate(269,235)"/>
<path d="M0 0 C1.3271261 3.9813783 1.06915913 7.85045227 1 12 C1.66 12.33 2.32 12.66 3 13 C3 13.66 3 14.32 3 15 C3.66 15 4.32 15 5 15 C5 15.66 5 16.32 5 17 C-2.24528302 17.60377358 -2.24528302 17.60377358 -5.5 15 C-7.55875722 10.88248556 -7.50971845 8.58746602 -7 4 C-5.01243063 0.02486126 -4.62999121 0 0 0 Z " fill="#EFF1F4" transform="translate(243,184)"/>
<path d="M0 0 C3.3 0 6.6 0 10 0 C9.51917969 0.68449219 9.03835938 1.36898437 8.54296875 2.07421875 C6.74297878 5.48736428 6.50621595 7.97692423 6.3125 11.8125 C6.24675781 12.97394531 6.18101562 14.13539063 6.11328125 15.33203125 C6.07589844 16.21246094 6.03851563 17.09289062 6 18 C4.02 18 2.04 18 0 18 C0 12.06 0 6.12 0 0 Z " fill="#F0F2F5" transform="translate(257,183)"/>
<path d="M0 0 C1.32 0 2.64 0 4 0 C4.33 3.3 4.66 6.6 5 10 C5.66 10 6.32 10 7 10 C7.33 6.7 7.66 3.4 8 0 C9.32 0 10.64 0 12 0 C12.08114106 1.77007714 12.13925505 3.54122098 12.1875 5.3125 C12.22230469 6.29863281 12.25710937 7.28476563 12.29296875 8.30078125 C12 11 12 11 10.67578125 12.83203125 C8.07386354 14.64548905 6.07797388 14.38474673 3 14 C1.32421875 12.83203125 1.32421875 12.83203125 0 11 C-0.29296875 8.30078125 -0.29296875 8.30078125 -0.1875 5.3125 C-0.16042969 4.31863281 -0.13335937 3.32476562 -0.10546875 2.30078125 C-0.07066406 1.54152344 -0.03585938 0.78226563 0 0 Z " fill="#E4EBEC" transform="translate(146,235)"/>
<path d="M0 0 C2.5 2 2.5 2 4 4 C3.34 4.66 2.68 5.32 2 6 C1.87496094 6.67289062 1.74992188 7.34578125 1.62109375 8.0390625 C1.41613281 8.68617187 1.21117187 9.33328125 1 10 C-0.77734375 10.8359375 -0.77734375 10.8359375 -2.9375 11.375 C-5.11078052 12.01178301 -5.11078052 12.01178301 -7 13 C-8.59995382 16.04021368 -8.59995382 16.04021368 -9 19 C-9.99 18.67 -10.98 18.34 -12 18 C-12.36619718 12.50704225 -12.36619718 12.50704225 -10.78125 10.3125 C-8.47956546 8.61652192 -7.13893251 8.68961163 -4.3125 8.8125 C-3.10013672 8.85310547 -3.10013672 8.85310547 -1.86328125 8.89453125 C-1.24839844 8.92933594 -0.63351563 8.96414062 0 9 C-0.33 7.68 -0.66 6.36 -1 5 C-4.3 5 -7.6 5 -11 5 C-10.67 3.68 -10.34 2.36 -10 1 C-6.81225917 -0.59387042 -3.46072041 -0.52663137 0 0 Z " fill="#DDE1E6" transform="translate(181,63)"/>
<path d="M0 0 C1.65 0 3.3 0 5 0 C5.50757862 1.41396902 6.00574925 2.83131729 6.5 4.25 C6.7784375 5.03890625 7.056875 5.8278125 7.34375 6.640625 C8 9 8 9 8 13 C6.68 13 5.36 13 4 13 C4 12.34 4 11.68 4 11 C2.68 11 1.36 11 0 11 C0 11.66 0 12.32 0 13 C-1.32 13 -2.64 13 -4 13 C-3.71517632 11.58194169 -3.42181856 10.16559621 -3.125 8.75 C-2.96257812 7.96109375 -2.80015625 7.1721875 -2.6328125 6.359375 C-2.00849925 4.03168856 -1.15161458 2.10968048 0 0 Z " fill="#EBEFF2" transform="translate(291,235)"/>
<path d="M0 0 C1.65 0 3.3 0 5 0 C8.42857143 8.42857143 8.42857143 8.42857143 8 13 C7.01 13 6.02 13 5 13 C5 12.34 5 11.68 5 11 C3.35 11 1.7 11 0 11 C0 11.66 0 12.32 0 13 C-1.32 13 -2.64 13 -4 13 C-3.27991594 8.39146203 -1.68704061 4.32762591 0 0 Z " fill="#DEE2E5" transform="translate(206,235)"/>
<path d="M0 0 C0.33 0 0.66 0 1 0 C1.06058594 1.12019531 1.12117187 2.24039063 1.18359375 3.39453125 C1.26801424 4.86719984 1.35266149 6.33985544 1.4375 7.8125 C1.47681641 8.55048828 1.51613281 9.28847656 1.55664062 10.04882812 C1.77868727 16.11808793 1.77868727 16.11808793 5 21 C4.360625 21.12375 3.72125 21.2475 3.0625 21.375 C2.381875 21.58125 1.70125 21.7875 1 22 C0.67 22.66 0.34 23.32 0 24 C-0.66 23.34 -1.32 22.68 -2 22 C-1.625 19.875 -1.625 19.875 -1 18 C-2.65 18 -4.3 18 -6 18 C-6 14.04 -6 10.08 -6 6 C-4.02 6 -2.04 6 0 6 C0 4.02 0 2.04 0 0 Z " fill="#4B535E" transform="translate(153,183)"/>
<path d="M0 0 C1.98 0 3.96 0 6 0 C6 5.61 6 11.22 6 17 C3.69 16.67 1.38 16.34 -1 16 C-0.67 10.72 -0.34 5.44 0 0 Z " fill="#F7F8F9" transform="translate(231,150)"/>
<path d="M0 0 C1.98 0 3.96 0 6 0 C6 5.61 6 11.22 6 17 C4.02 17 2.04 17 0 17 C0 11.39 0 5.78 0 0 Z " fill="#F8FAFC" transform="translate(227,184)"/>
<path d="M0 0 C1.98 0 3.96 0 6 0 C6 5.61 6 11.22 6 17 C4.02 17 2.04 17 0 17 C0 11.39 0 5.78 0 0 Z " fill="#F6F8FA" transform="translate(203,184)"/>
<path d="M0 0 C1.35374033 4.061221 0.7278916 6.8146233 0 11 C0.66 11.33 1.32 11.66 2 12 C-1.01324195 13.50662097 -3.68286377 13.17770373 -7 13 C-9 11 -9 11 -9.375 8.0625 C-9 5 -9 5 -7.3125 3.125 C-4.66729453 1.83814329 -2.90566174 1.75786152 0 2 C0 1.34 0 0.68 0 0 Z " fill="#D9DCDF" transform="translate(163,188)"/>
<path d="M0 0 C2 2 2 2 2.125 4.625 C2.08375 5.40875 2.0425 6.1925 2 7 C-0.97 7 -3.94 7 -7 7 C-6.34 8.32 -5.68 9.64 -5 11 C-1.43793339 11.81870185 -1.43793339 11.81870185 2 12 C0 14 0 14 -2.9375 14.375 C-6 14 -6 14 -7.875 12.4375 C-9.41637627 9.09785142 -9.39650104 6.63459282 -9 3 C-6.8388936 -0.72190547 -4.01418597 -0.42704106 0 0 Z " fill="#EBF2F6" transform="translate(189,96)"/>
<path d="M0 0 C2 2 2 2 2.125 4.625 C2.08375 5.40875 2.0425 6.1925 2 7 C-0.97 7 -3.94 7 -7 7 C-6.67 8.32 -6.34 9.64 -6 11 C-3.36 11.33 -0.72 11.66 2 12 C0 14 0 14 -2.9375 14.375 C-6 14 -6 14 -7.875 12.4375 C-9.41637627 9.09785142 -9.39650104 6.63459282 -9 3 C-6.8388936 -0.72190547 -4.01418597 -0.42704106 0 0 Z " fill="#DFE7EC" transform="translate(243,96)"/>
<path d="M0 0 C0.33 0.99 0.66 1.98 1 3 C-0.4375 5.1875 -0.4375 5.1875 -2 7 C-2.66 6.67 -3.32 6.34 -4 6 C-4 7.32 -4 8.64 -4 10 C-6.64 10.66 -9.28 11.32 -12 12 C-12 9.36 -12 6.72 -12 4 C-10.75539217 3.32332002 -9.50403104 2.65905281 -8.25 2 C-7.55390625 1.62875 -6.8578125 1.2575 -6.140625 0.875 C-4 0 -4 0 0 0 Z " fill="#F5971D" transform="translate(250,63)"/>
<path d="M0 0 C1.65 0.33 3.3 0.66 5 1 C5 5.62 5 10.24 5 15 C3.02 15 1.04 15 -1 15 C-1 12.03 -1 9.06 -1 6 C-2.98 6.33 -4.96 6.66 -7 7 C-6.34 5.35 -5.68 3.7 -5 2 C-4.34 2.66 -3.68 3.32 -3 4 C-2.01 2.68 -1.02 1.36 0 0 Z " fill="#414A53" transform="translate(237,233)"/>
<path d="M0 0 C1.63368652 4.90105955 0.54088797 8.81004646 -1.5625 13.4375 C-2.036875 14.283125 -2.51125 15.12875 -3 16 C-5.5 13.9375 -5.5 13.9375 -8 11 C-8.3125 7.1875 -8.3125 7.1875 -8 4 C-6.35 3.67 -4.7 3.34 -3 3 C-3 2.34 -3 1.68 -3 1 C-2.01 0.67 -1.02 0.34 0 0 Z " fill="#353F4B" transform="translate(204,233)"/>
<path d="M0 0 C2.4609375 1.109375 2.4609375 1.109375 5.375 2.75 C6.33148438 3.28109375 7.28796875 3.8121875 8.2734375 4.359375 C10.64608402 5.78704196 12.82616554 7.28977953 15 9 C13.329375 9.2165625 13.329375 9.2165625 11.625 9.4375 C8.17857953 9.78372035 8.17857953 9.78372035 6 11 C3.6171875 9.78515625 3.6171875 9.78515625 0.875 8.0625 C-0.03507812 7.49660156 -0.94515625 6.93070312 -1.8828125 6.34765625 C-2.58148438 5.90292969 -3.28015625 5.45820313 -4 5 C-2.25 1.125 -2.25 1.125 0 0 Z " fill="#CED5D7" transform="translate(102,267)"/>
<path d="M0 0 C1 1 1 1 1.09765625 2.84765625 C1.04882812 5.92382812 1.04882812 5.92382812 1 9 C-1.31 9.33 -3.62 9.66 -6 10 C-8 7 -8 7 -7.75 3.375 C-7.5025 2.26125 -7.255 1.1475 -7 0 C-4.31633121 -1.3418344 -2.84719317 -0.73004953 0 0 Z " fill="#414A55" transform="translate(257,98)"/>
<path d="M0 0 C1.37478516 0.01740234 1.37478516 0.01740234 2.77734375 0.03515625 C3.69644531 0.04417969 4.61554688 0.05320313 5.5625 0.0625 C6.27277344 0.07410156 6.98304688 0.08570313 7.71484375 0.09765625 C7.71484375 3.06765625 7.71484375 6.03765625 7.71484375 9.09765625 C7.05484375 8.43765625 6.39484375 7.77765625 5.71484375 7.09765625 C5.38484375 7.42765625 5.05484375 7.75765625 4.71484375 8.09765625 C1.21484375 8.22265625 1.21484375 8.22265625 -2.28515625 8.09765625 C-3.28515625 7.09765625 -3.28515625 7.09765625 -3.41015625 4.09765625 C-3.24519906 0.13868372 -3.24519906 0.13868372 0 0 Z " fill="#4A525B" transform="translate(182.28515625,187.90234375)"/>
<path d="M0 0 C2.97 0 5.94 0 9 0 C9 0.99 9 1.98 9 3 C7.35 3 5.7 3 4 3 C4 3.99 4 4.98 4 6 C5.32 6 6.64 6 8 6 C8 6.99 8 7.98 8 9 C6.68 9 5.36 9 4 9 C4 10.32 4 11.64 4 13 C2.68 13 1.36 13 0 13 C0 8.71 0 4.42 0 0 Z " fill="#E5E9EC" transform="translate(111,235)"/>
<path d="M0 0 C3.375 0.3125 3.375 0.3125 7 1 C7.66 1.99 8.32 2.98 9 4 C7.989375 3.7525 6.97875 3.505 5.9375 3.25 C0.82472816 2.92537957 -0.7780995 4.26818203 -5 7 C-5.66 7 -6.32 7 -7 7 C-7 11.95 -7 16.9 -7 22 C-4.525 22.99 -4.525 22.99 -2 24 C-1.38125 24.391875 -0.7625 24.78375 -0.125 25.1875 C3.06175032 26.40596336 5.71661887 25.63141945 9 25 C9 25.99 9 26.98 9 28 C3.44426341 28.57872256 -1.7716377 28.48741702 -6.53515625 25.30859375 C-10.10263237 19.68625138 -8.47661673 11.37474881 -8 5 C-6.35 4.67 -4.7 4.34 -3 4 C-3 3.34 -3 2.68 -3 2 C-2.01 2 -1.02 2 0 2 C0 1.34 0 0.68 0 0 Z " fill="#6F5837" transform="translate(244,59)"/>
<path d="M0 0 C0.495 0.99 0.495 0.99 1 2 C-6.49913707 6.94116871 -14.18539597 11.41131679 -22.02734375 15.77734375 C-27.39907548 18.77033339 -32.70162852 21.87917892 -38 25 C-38 24.01 -38 23.02 -38 22 C-37.10023437 21.50113281 -36.20046875 21.00226563 -35.2734375 20.48828125 C-23.39173048 13.86762077 -11.68862542 6.95466747 0 0 Z " fill="#E0E4E3" transform="translate(111,68)"/>
<path d="M0 0 C0.66 0.33 1.32 0.66 2 1 C2 1.99 2 2.98 2 4 C5.34252724 4.07427838 7.8035914 4.06546953 11 3 C11 3.66 11 4.32 11 5 C7.46315341 5.80842208 4.72159473 6 1 6 C0.67 11.61 0.34 17.22 0 23 C-2 22 -2 22 -2.625 20.4375 C-3 18 -3 18 -2.875 14.0625 C-2.80404621 10.26647249 -3.68567854 8.08576195 -6 5 C-5.01 5.33 -4.02 5.66 -3 6 C-2.690625 5.195625 -2.38125 4.39125 -2.0625 3.5625 C-1 1 -1 1 0 0 Z " fill="#333D49" transform="translate(256,178)"/>
<path d="M0 0 C1.8871875 0.061875 1.8871875 0.061875 3.8125 0.125 C3.8125 0.455 3.8125 0.785 3.8125 1.125 C1.8325 1.455 -0.1475 1.785 -2.1875 2.125 C-2.5175 7.405 -2.8475 12.685 -3.1875 18.125 C-3.8475 17.795 -4.5075 17.465 -5.1875 17.125 C-5.1875 16.135 -5.1875 15.145 -5.1875 14.125 C-6.1775 14.62 -6.1775 14.62 -7.1875 15.125 C-9.5204866 15.16522391 -11.85456666 15.16820247 -14.1875 15.125 C-14.5175 14.135 -14.8475 13.145 -15.1875 12.125 C-11.8875 12.125 -8.5875 12.125 -5.1875 12.125 C-5.8475 8.825 -6.5075 5.525 -7.1875 2.125 C-4.09861478 0.06574319 -3.47814073 -0.1140374 0 0 Z " fill="#3B424A" transform="translate(298.1875,181.875)"/>
<path d="M0 0 C2.475 0.99 2.475 0.99 5 2 C4 5 4 5 2 7 C2.969375 7.45375 3.93875 7.9075 4.9375 8.375 C8 10 8 10 9 12 C10.2375 12.495 10.2375 12.495 11.5 13 C14 14 14 14 15 16 C8.81663908 14.35526763 3.60344134 11.07446913 -1.875 7.875 C-2.84953125 7.31167969 -3.8240625 6.74835938 -4.828125 6.16796875 C-7.22161962 4.78349637 -9.6120838 3.39406459 -12 2 C-11.01 1.67 -10.02 1.34 -9 1 C-7.32580562 1.9873454 -5.65948148 2.98812105 -4 4 C-2.68 4 -1.36 4 0 4 C-0.33 3.01 -0.66 2.02 -1 1 C-0.67 0.67 -0.34 0.34 0 0 Z " fill="#DCDFE1" transform="translate(97,265)"/>
<path d="M0 0 C0.66 0 1.32 0 2 0 C2.33 5.28 2.66 10.56 3 16 C-5.75 13.25 -5.75 13.25 -8 11 C-8 10.01 -8 9.02 -8 8 C-5.03 8 -2.06 8 1 8 C0.34 5.69 -0.32 3.38 -1 1 C-0.67 0.67 -0.34 0.34 0 0 Z " fill="#505862" transform="translate(190,95)"/>
<path d="M0 0 C2.64 0.66 5.28 1.32 8 2 C8.33 1.34 8.66 0.68 9 0 C9.66 0.66 10.32 1.32 11 2 C10.67 2.99 10.34 3.98 10 5 C10.99 4.67 11.98 4.34 13 4 C13.5775 4.70125 14.155 5.4025 14.75 6.125 C18.29850646 9.75602987 22.88616308 11.50961017 27.453125 13.5703125 C30 15 30 15 31 18 C29.68 17.67 28.36 17.34 27 17 C27 16.34 27 15.68 27 15 C25.88818359 14.83564453 25.88818359 14.83564453 24.75390625 14.66796875 C21.86123396 13.96634185 20.31698969 13.05929301 17.9375 11.3125 C13.32896471 8.08730245 8.49034989 5.68486131 3.40625 3.296875 C1 2 1 2 0 0 Z " fill="#DEE1E1" transform="translate(155,306)"/>
<path d="M0 0 C8.00352089 3.7567547 15.45935194 8.40491759 23 13 C19.85179059 14.04940314 19.00659136 14.066855 16 13 C15.34 12.34 14.68 11.68 14 11 C10.30581799 9.768606 7.7943739 10.35567236 4 11 C4.33 8.69 4.66 6.38 5 4 C2.525 3.01 2.525 3.01 0 2 C0 1.34 0 0.68 0 0 Z " fill="#DCE0E0" transform="translate(321,71)"/>
<path d="M0 0 C1.2065625 0.0309375 1.2065625 0.0309375 2.4375 0.0625 C1.4475 0.7225 0.4575 1.3825 -0.5625 2.0625 C-1.28632467 4.12175139 -1.28632467 4.12175139 -1.5625 6.0625 C1.0775 6.0625 3.7175 6.0625 6.4375 6.0625 C6.4375 10.3525 6.4375 14.6425 6.4375 19.0625 C6.1075 19.0625 5.7775 19.0625 5.4375 19.0625 C5.4375 15.1025 5.4375 11.1425 5.4375 7.0625 C3.1275 7.0625 0.8175 7.0625 -1.5625 7.0625 C-1.5625 11.3525 -1.5625 15.6425 -1.5625 20.0625 C-2.2225 20.0625 -2.8825 20.0625 -3.5625 20.0625 C-3.5625 16.1025 -3.5625 12.1425 -3.5625 8.0625 C-4.2225 8.0625 -4.8825 8.0625 -5.5625 8.0625 C-5.5625 7.4025 -5.5625 6.7425 -5.5625 6.0625 C-4.9025 6.0625 -4.2425 6.0625 -3.5625 6.0625 C-3.5934375 4.8559375 -3.5934375 4.8559375 -3.625 3.625 C-3.54067676 0.16774696 -3.45725304 0.08432324 0 0 Z " fill="#DBE3E7" transform="translate(223.5625,89.9375)"/>
<path d="M0 0 C1.32 0 2.64 0 4 0 C4 3.3 4 6.6 4 10 C5.65 10 7.3 10 9 10 C9 10.99 9 11.98 9 13 C6.03 13 3.06 13 0 13 C0 8.71 0 4.42 0 0 Z " fill="#E7ECF0" transform="translate(306,235)"/>
<path d="M0 0 C4 1 4 1 6 2 C6 5.3 6 8.6 6 12 C5.34 12 4.68 12 4 12 C4 10.68 4 9.36 4 8 C3.67 9.98 3.34 11.96 3 14 C2.01 14 1.02 14 0 14 C0 9.38 0 4.76 0 0 Z " fill="#7D858D" transform="translate(213,96)"/>
<path d="M0 0 C0.99 0.33 1.98 0.66 3 1 C3.125 4.375 3.125 4.375 3 8 C2.34 8.66 1.68 9.32 1 10 C-1.1640625 9.9765625 -1.1640625 9.9765625 -3.625 9.625 C-4.85089844 9.45871094 -4.85089844 9.45871094 -6.1015625 9.2890625 C-7.04128906 9.14597656 -7.04128906 9.14597656 -8 9 C-8.33 7.35 -8.66 5.7 -9 4 C-6.03 4 -3.06 4 0 4 C0 2.68 0 1.36 0 0 Z " fill="#4C555F" transform="translate(245,99)"/>
<path d="M0 0 C2.64 0.99 5.28 1.98 8 3 C7.01 3.33 6.02 3.66 5 4 C5 5.65 5 7.3 5 9 C4.01 9.33 3.02 9.66 2 10 C2 15.61 2 21.22 2 27 C1.67 27 1.34 27 1 27 C0.67 21.39 0.34 15.78 0 10 C-1.65 9.67 -3.3 9.34 -5 9 C-4.360625 8.773125 -3.72125 8.54625 -3.0625 8.3125 C-0.75007642 7.15671877 -0.75007642 7.15671877 -0.25 4.5 C0.03316791 2.08706575 0.03316791 2.08706575 0 0 Z " fill="#363E47" transform="translate(209,174)"/>
<path d="M0 0 C3.63 0 7.26 0 11 0 C11 0.99 11 1.98 11 3 C9.68 3 8.36 3 7 3 C7 6.3 7 9.6 7 13 C6.01 13 5.02 13 4 13 C4 9.7 4 6.4 4 3 C2.68 3 1.36 3 0 3 C0 2.01 0 1.02 0 0 Z " fill="#EFF4F9" transform="translate(220,235)"/>
<path d="M0 0 C1.32 0.33 2.64 0.66 4 1 C4 5.62 4 10.24 4 15 C2.68 15 1.36 15 0 15 C0 10.05 0 5.1 0 0 Z " fill="#4D555F" transform="translate(227,148)"/>
<path d="M0 0 C0.66 0.33 1.32 0.66 2 1 C0.95125002 3.62187494 0.35068687 4.79371361 -2.125 6.25 C-2.74375 6.4975 -3.3625 6.745 -4 7 C-4 7.66 -4 8.32 -4 9 C-9.95703125 10.7578125 -9.95703125 10.7578125 -12 11 C-12.99 10.34 -13.98 9.68 -15 9 C-12.54732365 7.46931512 -10.08866106 5.95031377 -7.625 4.4375 C-6.92632812 3.99986328 -6.22765625 3.56222656 -5.5078125 3.11132812 C-3.70814097 2.01249022 -1.85677657 0.99932133 0 0 Z " fill="#545D67" transform="translate(111,77)"/>
<path d="M0 0 C0.99 0 1.98 0 3 0 C5.25684543 5.36000789 6.36263859 9.1977825 6 15 C6.66 15.33 7.32 15.66 8 16 C7.34 16.33 6.68 16.66 6 17 C3.221279 14.62602268 2.30448041 12.55280146 1.3125 9.0625 C1.06113281 8.20785156 0.80976563 7.35320312 0.55078125 6.47265625 C0 4 0 4 0 0 Z " fill="#F3F7F8" transform="translate(188,64)"/>
<path d="M0 0 C0.99 0 1.98 0 3 0 C3 4.29 3 8.58 3 13 C4.98 13 6.96 13 9 13 C8.01 13.495 8.01 13.495 7 14 C6.67 14.66 6.34 15.32 6 16 C4.68 16 3.36 16 2 16 C-0.14336161 12.5233662 -0.21277626 9.78770805 -0.125 5.75 C-0.10695313 4.67234375 -0.08890625 3.5946875 -0.0703125 2.484375 C-0.04710937 1.66453125 -0.02390625 0.8446875 0 0 Z " fill="#303842" transform="translate(264,188)"/>
<path d="M0 0 C0.66 0.33 1.32 0.66 2 1 C2.30859375 2.890625 2.30859375 2.890625 2.4375 5.25 C2.77834431 9.20758119 3.5881897 11.74929916 6 15 C4.68 15.99 3.36 16.98 2 18 C0.68 17.34 -0.64 16.68 -2 16 C-1.67 15.67 -1.34 15.34 -1 15 C-0.76346477 12.47403741 -0.57826308 9.96892793 -0.4375 7.4375 C-0.39431641 6.72658203 -0.35113281 6.01566406 -0.30664062 5.28320312 C-0.20028223 3.52238088 -0.09961154 1.7612168 0 0 Z M-2 18 C0 19 0 19 0 19 Z " fill="#353F4A" transform="translate(234,186)"/>
<path d="M0 0 C0.33 0 0.66 0 1 0 C1.33 4.29 1.66 8.58 2 13 C2.99 13 3.98 13 5 13 C5.22786458 15.01822917 5.45572917 17.03645833 5.68359375 19.0546875 C5.91292961 21.07404316 5.91292961 21.07404316 7 23 C6.01 23 5.02 23 4 23 C4 23.66 4 24.32 4 25 C3.34 24.67 2.68 24.34 2 24 C2.33 22.68 2.66 21.36 3 20 C2.01 20 1.02 20 0 20 C0 13.4 0 6.8 0 0 Z " fill="#5C616B" transform="translate(195,143)"/>
<path d="M0 0 C0.66 0 1.32 0 2 0 C2 1.32 2 2.64 2 4 C3.32 4 4.64 4 6 4 C6 4.66 6 5.32 6 6 C4.68 6 3.36 6 2 6 C2 9.3 2 12.6 2 16 C3.32 16.33 4.64 16.66 6 17 C4.34385343 17.38218767 2.67542976 17.71395102 1 18 C0 17 0 17 -0.09765625 14.27734375 C-0.08605469 13.17519531 -0.07445312 12.07304688 -0.0625 10.9375 C-0.05347656 9.83277344 -0.04445312 8.72804688 -0.03515625 7.58984375 C-0.02355469 6.73519531 -0.01195312 5.88054687 0 5 C-0.66 4.67 -1.32 4.34 -2 4 C-1.34 4 -0.68 4 0 4 C0 2.68 0 1.36 0 0 Z " fill="#BCC3CA" transform="translate(205,92)"/>
<path d="M0 0 C0.66 0.33 1.32 0.66 2 1 C2 4 2 4 0.50390625 5.53515625 C-0.13675781 6.03917969 -0.77742187 6.54320313 -1.4375 7.0625 C-4.15875193 9.1671333 -4.15875193 9.1671333 -6 12 C-7.32 11.34 -8.64 10.68 -10 10 C-10 8.68 -10 7.36 -10 6 C-9.278125 5.938125 -8.55625 5.87625 -7.8125 5.8125 C-4.15342375 4.75543353 -2.50788398 2.79449929 0 0 Z " fill="#FEF5D2" transform="translate(252,68)"/>
<path d="M0 0 C3.5625 0.3125 3.5625 0.3125 5.5625 1.5625 C6.5625 3.3125 6.5625 3.3125 6.25 5.5 C5.9096875 6.3971875 5.9096875 6.3971875 5.5625 7.3125 C4.985 6.796875 4.4075 6.28125 3.8125 5.75 C1.6975149 4.07748898 1.6975149 4.07748898 -0.625 4.5 C-2.6295235 5.16884883 -2.6295235 5.16884883 -3.4375 7.3125 C-4.0975 7.3125 -4.7575 7.3125 -5.4375 7.3125 C-5.5625 4.9375 -5.5625 4.9375 -5.4375 2.3125 C-3.4375 0.3125 -3.4375 0.3125 0 0 Z " fill="#EFF4F7" transform="translate(132.4375,234.6875)"/>
<path d="M0 0 C-2.82214259 2.82214259 -5.18837047 4.72945682 -9 6 C-9.66 5.67 -10.32 5.34 -11 5 C-11.625 1.9375 -11.625 1.9375 -12 -1 C-3.42857143 -2.42857143 -3.42857143 -2.42857143 0 0 Z " fill="#3B4652" transform="translate(167,202)"/>
<path d="M0 0 C0.33 0 0.66 0 1 0 C1 5.61 1 11.22 1 17 C2.98 17 4.96 17 7 17 C7 12.71 7 8.42 7 4 C7.33 4 7.66 4 8 4 C8.33 8.95 8.66 13.9 9 19 C7 20 7 20 0 20 C0 13.4 0 6.8 0 0 Z " fill="#4D545D" transform="translate(256,184)"/>
<path d="M0 0 C1.65 0 3.3 0 5 0 C5.66 2.64 6.32 5.28 7 8 C5.02 8.33 3.04 8.66 1 9 C0.67 7.68 0.34 6.36 0 5 C-0.99 5.495 -0.99 5.495 -2 6 C-1.34 4.02 -0.68 2.04 0 0 Z " fill="#D6DADC" transform="translate(291,235)"/>
<path d="M0 0 C0.99 0 1.98 0 3 0 C4.34152827 2.68305654 3.91701204 4.46608021 3.625 7.4375 C3.53476562 8.40558594 3.44453125 9.37367188 3.3515625 10.37109375 C3 13 3 13 2 16 C2.66 16.33 3.32 16.66 4 17 C3.01 17.66 2.02 18.32 1 19 C-0.65497356 15.69005287 -0.10084335 12.00877 -0.0625 8.375 C-0.05798828 7.57320312 -0.05347656 6.77140625 -0.04882812 5.9453125 C-0.03703168 3.96350994 -0.01909605 1.98174567 0 0 Z " fill="#383F48" transform="translate(274,185)"/>
<path d="M0 0 C2.01822917 0.06510417 4.03645833 0.13020833 6.0546875 0.1953125 C6.3846875 1.8453125 6.7146875 3.4953125 7.0546875 5.1953125 C3.7546875 5.5253125 0.4546875 5.8553125 -2.9453125 6.1953125 C-3.2753125 4.8753125 -3.6053125 3.5553125 -3.9453125 2.1953125 C-1.9453125 0.1953125 -1.9453125 0.1953125 0 0 Z " fill="#565D6A" transform="translate(173.9453125,66.8046875)"/>
<path d="M0 0 C0.66 0 1.32 0 2 0 C2.05418326 2.08304538 2.09287551 4.16649768 2.125 6.25 C2.14820313 7.41015625 2.17140625 8.5703125 2.1953125 9.765625 C2.0103949 12.82786046 1.60823023 14.44202751 0 17 C-1.32 16.67 -2.64 16.34 -4 16 C-3.34 15.01 -2.68 14.02 -2 13 C-1.55296766 10.78415454 -1.18536758 8.55158039 -0.875 6.3125 C-0.70742187 5.13300781 -0.53984375 3.95351562 -0.3671875 2.73828125 C-0.24601563 1.83464844 -0.12484375 0.93101562 0 0 Z " fill="#465059" transform="translate(218,150)"/>
<path d="M0 0 C0 0.66 0 1.32 0 2 C-1.423125 2.309375 -1.423125 2.309375 -2.875 2.625 C-6.29166667 3.70833333 -6.29166667 3.70833333 -7.375 7.125 C-7.58125 8.07375 -7.7875 9.0225 -8 10 C-8.99 9.67 -9.98 9.34 -11 9 C-11.35555556 3.66666667 -11.35555556 3.66666667 -10 1.125 C-6.74686316 -0.70488947 -3.68609891 -0.18128355 0 0 Z " fill="#F0F6F8" transform="translate(180,72)"/>
<path d="M0 0 C2.31 0 4.62 0 7 0 C7 0.33 7 0.66 7 1 C5.02 1 3.04 1 1 1 C2.93254772 3.0245738 4.63158688 4.42105792 7 6 C5.88625 6.309375 4.7725 6.61875 3.625 6.9375 C0.2054845 7.82326483 0.2054845 7.82326483 -2 9 C-2 8.01 -2 7.02 -2 6 C-2.33 6.99 -2.66 7.98 -3 9 C-3.99 9 -4.98 9 -6 9 C-5.67 7.68 -5.34 6.36 -5 5 C-4.01 5 -3.02 5 -2 5 C-1.34 3.35 -0.68 1.7 0 0 Z " fill="#606973" transform="translate(219,84)"/>
<path d="M0 0 C1.99954746 -0.04254356 4.00041636 -0.04080783 6 0 C7 1 7 1 7.09765625 2.84765625 C7.06510417 4.8984375 7.03255208 6.94921875 7 9 C5.35 9 3.7 9 2 9 C2 7.02 2 5.04 2 3 C1.34 2.67 0.68 2.34 0 2 C0 1.34 0 0.68 0 0 Z " fill="#F7F8F9" transform="translate(285,184)"/>
<path d="M0 0 C3.53677664 -0.32152515 5.3962104 -0.4131192 8.375 1.625 C10.44361448 4.64835963 10.46879799 6.40588208 10 10 C9.34 10.66 8.68 11.32 8 12 C8 11.34 8 10.68 8 10 C7.34 10 6.68 10 6 10 C5.67 7.03 5.34 4.06 5 1 C3.35 1 1.7 1 0 1 C0 0.67 0 0.34 0 0 Z " fill="#EDF1F5" transform="translate(186,235)"/>
<path d="M0 0 C-0.33 4.95 -0.66 9.9 -1 15 C-1.33 15 -1.66 15 -2 15 C-2.04898438 14.36191406 -2.09796875 13.72382813 -2.1484375 13.06640625 C-2.22320312 12.24011719 -2.29796875 11.41382813 -2.375 10.5625 C-2.47941406 9.32693359 -2.47941406 9.32693359 -2.5859375 8.06640625 C-2.79089844 7.04353516 -2.79089844 7.04353516 -3 6 C-3.66 5.67 -4.32 5.34 -5 5 C-5.66 6.32 -6.32 7.64 -7 9 C-7 6.36 -7 3.72 -7 1 C-3.375 -1.125 -3.375 -1.125 0 0 Z " fill="#333C49" transform="translate(185,234)"/>
<path d="M0 0 C0.66 0 1.32 0 2 0 C2 5.61 2 11.22 2 17 C1.67 17 1.34 17 1 17 C1 13.7 1 10.4 1 7 C-3.03378366 7.50980961 -3.03378366 7.50980961 -4.25 10.0625 C-4.4975 10.701875 -4.745 11.34125 -5 12 C-5 9.36 -5 6.72 -5 4 C-3.35 4 -1.7 4 0 4 C0 2.68 0 1.36 0 0 Z " fill="#535962" transform="translate(201,184)"/>
<path d="M0 0 C1.134375 0.020625 2.26875 0.04125 3.4375 0.0625 C2.5625 4.9375 2.5625 4.9375 1.4375 6.0625 C-0.22867115 6.10313832 -1.89638095 6.105221 -3.5625 6.0625 C-3.94468767 4.40635343 -4.27645102 2.73792976 -4.5625 1.0625 C-3.5625 0.0625 -3.5625 0.0625 0 0 Z " fill="#4E545D" transform="translate(177.5625,74.9375)"/>
<path d="M0 0 C0.33 0.99 0.66 1.98 1 3 C-0.65 3.33 -2.3 3.66 -4 4 C-4.33 4.99 -4.66 5.98 -5 7 C-9.455 7.495 -9.455 7.495 -14 8 C-11.42066109 5.42066109 -9.56158672 4.02637294 -6.4375 2.3125 C-5.65246094 1.87550781 -4.86742187 1.43851563 -4.05859375 0.98828125 C-2 0 -2 0 0 0 Z " fill="#545D66" transform="translate(150,56)"/>
<path d="M0 0 C2.97 0.495 2.97 0.495 6 1 C5.34 2.98 4.68 4.96 4 7 C3.01 7 2.02 7 1 7 C0.34 7.66 -0.32 8.32 -1 9 C-1.625 6.1875 -1.625 6.1875 -2 3 C-1.34 2.01 -0.68 1.02 0 0 Z " fill="#323D4B" transform="translate(214,233)"/>
<path d="M0 0 C2.0625 0.4375 2.0625 0.4375 4 1 C4 3.31 4 5.62 4 8 C2.0625 8.5625 2.0625 8.5625 0 9 C-1 8 -1 8 -1.125 4.5 C-1 1 -1 1 0 0 Z " fill="#515861" transform="translate(207,154)"/>
<path d="M0 0 C0.99 0 1.98 0 3 0 C3 2.97 3 5.94 3 9 C1.68 9 0.36 9 -1 9 C-1.625 5.625 -1.625 5.625 -2 2 C-1.34 1.34 -0.68 0.68 0 0 Z " fill="#4A5059" transform="translate(248,154)"/>
<path d="M0 0 C0.125 3.375 0.125 3.375 0 7 C-0.66 7.66 -1.32 8.32 -2 9 C-3.32 9 -4.64 9 -6 9 C-6 8.34 -6 7.68 -6 7 C-6.66 6.67 -7.32 6.34 -8 6 C-7.01 5.34 -6.02 4.68 -5 4 C-4.67 3.01 -4.34 2.02 -4 1 C-2 0 -2 0 0 0 Z " fill="#F6971A" transform="translate(257,72)"/>
<path d="M0 0 C0.99 0 1.98 0 3 0 C3 4.29 3 8.58 3 13 C2.01 13 1.02 13 0 13 C0 8.71 0 4.42 0 0 Z " fill="#F8FCFE" transform="translate(238,235)"/>
<path d="M0 0 C2.97 0 5.94 0 9 0 C8.3503125 0.7734375 8.3503125 0.7734375 7.6875 1.5625 C5.59680969 4.582386 4.37473935 7.5958835 3 11 C2.34 11 1.68 11 1 11 C1.66 7.7 2.32 4.4 3 1 C2.01 0.67 1.02 0.34 0 0 Z " fill="#5D626C" transform="translate(211,63)"/>
<path d="M0 0 C-0.99 0 -1.98 0 -3 0 C-2.67 2.31 -2.34 4.62 -2 7 C-2.99 7.495 -2.99 7.495 -4 8 C-4.46523063 9.89533342 -4.46523063 9.89533342 -4.625 12.0625 C-4.74875 13.361875 -4.8725 14.66125 -5 16 C-5.33 16 -5.66 16 -6 16 C-6.06058594 15.09636719 -6.12117187 14.19273438 -6.18359375 13.26171875 C-6.26738281 12.08222656 -6.35117188 10.90273437 -6.4375 9.6875 C-6.51871094 8.51574219 -6.59992188 7.34398438 -6.68359375 6.13671875 C-6.8867371 2.97409042 -6.8867371 2.97409042 -8 0 C-4.94736336 -0.98120464 -3.05263664 -0.98120464 0 0 Z " fill="#666D76" transform="translate(191,64)"/>
<path d="M0 0 C1.2065625 0.0309375 1.2065625 0.0309375 2.4375 0.0625 C2.81968767 1.71864657 3.15145102 3.38707024 3.4375 5.0625 C2.4375 6.0625 2.4375 6.0625 -0.125 6.125 C-1.3315625 6.0940625 -1.3315625 6.0940625 -2.5625 6.0625 C-2.94468767 4.40635343 -3.27645102 2.73792976 -3.5625 1.0625 C-2.5625 0.0625 -2.5625 0.0625 0 0 Z " fill="#EAEDF0" transform="translate(229.5625,174.9375)"/>
<path d="M0 0 C-0.66 1.32 -1.32 2.64 -2 4 C-2.66 4 -3.32 4 -4 4 C-4 4.66 -4 5.32 -4 6 C-7.75 8 -7.75 8 -10 8 C-10.33 8.66 -10.66 9.32 -11 10 C-11.66 10 -12.32 10 -13 10 C-12.80859375 8.203125 -12.80859375 8.203125 -12 6 C-9.78515625 4.296875 -9.78515625 4.296875 -7.0625 2.75 C-5.71865234 1.96882813 -5.71865234 1.96882813 -4.34765625 1.171875 C-2 0 -2 0 0 0 Z " fill="#555E67" transform="translate(127,69)"/>
<path d="M0 0 C2.00720923 0.28674418 4.0085944 0.61866701 6 1 C5.67 2.65 5.34 4.3 5 6 C3.35 6 1.7 6 0 6 C-0.38218767 4.34385343 -0.71395102 2.67542976 -1 1 C-0.67 0.67 -0.34 0.34 0 0 Z " fill="#E5E9EC" transform="translate(204,175)"/>
<path d="M0 0 C1.65 0 3.3 0 5 0 C5 0.66 5 1.32 5 2 C5.66 2 6.32 2 7 2 C7 2.66 7 3.32 7 4 C1.82421875 7.22265625 1.82421875 7.22265625 0 8 C-0.99 7.67 -1.98 7.34 -3 7 C-1.68 6.34 -0.36 5.68 1 5 C0.67 3.35 0.34 1.7 0 0 Z " fill="#2B3540" transform="translate(261,297)"/>
<path d="M0 0 C2.31 0 4.62 0 7 0 C7 0.66 7 1.32 7 2 C5.68 2.33 4.36 2.66 3 3 C2.67 6.3 2.34 9.6 2 13 C1.34 13 0.68 13 0 13 C0 8.71 0 4.42 0 0 Z " fill="#D5DCE1" transform="translate(194,96)"/>
<path d="M0 0 C-0.99 0.495 -0.99 0.495 -2 1 C-1.67 1.99 -1.34 2.98 -1 4 C0.65 4 2.3 4 4 4 C3.01 4.99 2.02 5.98 1 7 C-1.31 6.34 -3.62 5.68 -6 5 C-6.33 3.68 -6.66 2.36 -7 1 C-4.53721199 -0.231394 -2.7204945 -0.07159196 0 0 Z " fill="#5C616A" transform="translate(227,66)"/>
<path d="M0 0 C2.475 0.495 2.475 0.495 5 1 C5 2.65 5 4.3 5 6 C3.02 6.99 3.02 6.99 1 8 C0 7 0 7 -0.0625 3.4375 C-0.041875 2.303125 -0.02125 1.16875 0 0 Z " fill="#3E454D" transform="translate(253,238)"/>
<path d="M0 0 C1 1 1 1 1.09765625 2.84765625 C1.04882812 5.92382812 1.04882812 5.92382812 1 9 C0.67 9 0.34 9 0 9 C-0.33 6.69 -0.66 4.38 -1 2 C-2.65 2.33 -4.3 2.66 -6 3 C-6 4.65 -6 6.3 -6 8 C-6.66 7.67 -7.32 7.34 -8 7 C-7.74438677 4.6568787 -7.40729228 2.32156597 -7 0 C-4.31633121 -1.3418344 -2.84719317 -0.73004953 0 0 Z " fill="#5D646C" transform="translate(257,98)"/>
<path d="M0 0 C0.66 0.66 1.32 1.32 2 2 C-0.25 4.5625 -0.25 4.5625 -3 7 C-5.3125 6.8125 -5.3125 6.8125 -7 6 C-7 6.66 -7 7.32 -7 8 C-8.32 7.34 -9.64 6.68 -11 6 C-7.37 4.02 -3.74 2.04 0 0 Z " fill="#C9D2D5" transform="translate(315,273)"/>
<path d="M0 0 C2.0625 0.4375 2.0625 0.4375 4 1 C4 2.98 4 4.96 4 7 C2.68 7 1.36 7 0 7 C-1 6 -1 6 -1.125 3.5 C-1 1 -1 1 0 0 Z " fill="#454A54" transform="translate(131,238)"/>
<path d="M0 0 C0.33 0 0.66 0 1 0 C2.25 6.625 2.25 6.625 0 10 C-1.32 10 -2.64 10 -4 10 C-3.4359146 6.05140217 -2.2568294 3.29120954 0 0 Z " fill="#EDF2F4" transform="translate(206,238)"/>
<path d="M0 0 C1.32 0 2.64 0 4 0 C4 2.64 4 5.28 4 8 C2.68 8 1.36 8 0 8 C0 5.36 0 2.72 0 0 Z " fill="#3C454F" transform="translate(243,188)"/>
<path d="M0 0 C1.67542976 0.28604898 3.34385343 0.61781233 5 1 C5.33 2.32 5.66 3.64 6 5 C3.36 5 0.72 5 -2 5 C-1.125 1.125 -1.125 1.125 0 0 Z " fill="#5F666E" transform="translate(184,97)"/>
<path d="M0 0 C0.66 0.99 1.32 1.98 2 3 C2 2.34 2 1.68 2 1 C2.99 1 3.98 1 5 1 C4.67 2.65 4.34 4.3 4 6 C1.36 6 -1.28 6 -4 6 C-3.67 4.35 -3.34 2.7 -3 1 C-2.01 0.67 -1.02 0.34 0 0 Z M-3 3 C-2 5 -2 5 -2 5 Z " fill="#626A74" transform="translate(226,90)"/>
<path d="M0 0 C0.66 0.33 1.32 0.66 2 1 C1.814375 2.093125 1.62875 3.18625 1.4375 4.3125 C0.7421932 7.93624133 0.7421932 7.93624133 2 11 C1.01 12.485 1.01 12.485 0 14 C-0.99 13.67 -1.98 13.34 -3 13 C-2.01 8.71 -1.02 4.42 0 0 Z " fill="#5A616A" transform="translate(200,70)"/>
<path d="M0 0 C3.375 0.3125 3.375 0.3125 7 1 C7.66 1.99 8.32 2.98 9 4 C7.989375 3.7525 6.97875 3.505 5.9375 3.25 C0.81558126 2.92479881 -0.74455148 4.2994269 -5 7 C-5.99 7 -6.98 7 -8 7 C-7.67 6.01 -7.34 5.02 -7 4 C-5.68 4 -4.36 4 -3 4 C-3 3.34 -3 2.68 -3 2 C-2.01 2 -1.02 2 0 2 C0 1.34 0 0.68 0 0 Z " fill="#625141" transform="translate(244,59)"/>
<path d="M0 0 C2.45823172 3.68734758 3.01242616 6.69699971 4 11 C2.68 11.33 1.36 11.66 0 12 C0 11.01 0 10.02 0 9 C-0.66 8.67 -1.32 8.34 -2 8 C-1.34 5.36 -0.68 2.72 0 0 Z " fill="#5C626E" transform="translate(189,72)"/>
<path d="M0 0 C0.66 0.33 1.32 0.66 2 1 C0.50260417 2.23697917 -0.99479167 3.47395833 -2.4921875 4.7109375 C-3.71051161 5.75250992 -4.86660097 6.86660097 -6 8 C-8.32275177 8.40047444 -10.65739357 8.7397104 -13 9 C-10.59497637 6.36479259 -7.9814151 4.59697057 -4.9375 2.75 C-4.05964844 2.20859375 -3.18179688 1.6671875 -2.27734375 1.109375 C-1.52582031 0.74328125 -0.77429688 0.3771875 0 0 Z " fill="#59626A" transform="translate(163,47)"/>
<path d="M0 0 C0.66 0.66 1.32 1.32 2 2 C2.99 2 3.98 2 5 2 C5 5.3 5 8.6 5 12 C4.67 12 4.34 12 4 12 C4 10.35 4 8.7 4 7 C2.68 7 1.36 7 0 7 C0 4.69 0 2.38 0 0 Z " fill="#383F49" transform="translate(197,189)"/>
<path d="M0 0 C0 1.98 0 3.96 0 6 C-1.65 6 -3.3 6 -5 6 C-5.66 4.68 -6.32 3.36 -7 2 C-4.35261084 0.5393715 -3.10551666 0 0 0 Z " fill="#E9EDF0" transform="translate(308,183)"/>
<path d="M0 0 C1.67542976 0.28604898 3.34385343 0.61781233 5 1 C5 2.32 5 3.64 5 5 C2.69 5 0.38 5 -2 5 C-1.125 1.125 -1.125 1.125 0 0 Z " fill="#545C64" transform="translate(238,97)"/>
<path d="M0 0 C1.32 0.66 2.64 1.32 4 2 C3.67 3.65 3.34 5.3 3 7 C1.35 7.33 -0.3 7.66 -2 8 C-1.34 5.36 -0.68 2.72 0 0 Z " fill="#E7ECEE" transform="translate(135,240)"/>
<path d="M0 0 C2.64 0 5.28 0 8 0 C8 0.99 8 1.98 8 3 C6.02 3 4.04 3 2 3 C1.34 4.32 0.68 5.64 0 7 C0 4.69 0 2.38 0 0 Z " fill="#F3F7FB" transform="translate(112,235)"/>
<path d="M0 0 C2.475 0.495 2.475 0.495 5 1 C5 2.65 5 4.3 5 6 C4.01 6.33 3.02 6.66 2 7 C1.34 7.66 0.68 8.32 0 9 C0 6.03 0 3.06 0 0 Z " fill="#444B55" transform="translate(222,98)"/>
<path d="M0 0 C0.33 0 0.66 0 1 0 C1 3.63 1 7.26 1 11 C0.01 11 -0.98 11 -2 11 C-2 8.03 -2 5.06 -2 2 C-1.34 2 -0.68 2 0 2 C0 1.34 0 0.68 0 0 Z " fill="#F9FDFD" transform="translate(226,237)"/>
<path d="M0 0 C2.31 0 4.62 0 7 0 C7.33 0.99 7.66 1.98 8 3 C7.34 3.66 6.68 4.32 6 5 C3.5 4.625 3.5 4.625 1 4 C0.34 4 -0.32 4 -1 4 C-0.67 2.68 -0.34 1.36 0 0 Z " fill="#EEF3F6" transform="translate(252,235)"/>
<path d="M0 0 C1.98 0 3.96 0 6 0 C6 0.99 6 1.98 6 3 C4.68 3 3.36 3 2 3 C2 5.31 2 7.62 2 10 C0.4375 8.375 0.4375 8.375 -1 6 C-0.6875 2.75 -0.6875 2.75 0 0 Z " fill="#343C46" transform="translate(275,232)"/>
<path d="M0 0 C0.33 1.32 0.66 2.64 1 4 C-0.32 4.99 -1.64 5.98 -3 7 C-4.32 6.34 -5.64 5.68 -7 5 C-6.67 3.68 -6.34 2.36 -6 1 C-4.35 1.33 -2.7 1.66 -1 2 C-0.67 1.34 -0.34 0.68 0 0 Z " fill="#4E565F" transform="translate(186,81)"/>
<path d="M0 0 C0 1.98 0 3.96 0 6 C-2.96175123 5.38722388 -4.38058783 4.74627478 -7 3 C-5.40442685 -0.19114631 -3.35905282 0 0 0 Z " fill="#E4E9EC" transform="translate(153,183)"/>
<path d="M0 0 C1.8871875 0.061875 1.8871875 0.061875 3.8125 0.125 C3.8125 0.455 3.8125 0.785 3.8125 1.125 C1.8325 1.455 -0.1475 1.785 -2.1875 2.125 C-2.5175 4.435 -2.8475 6.745 -3.1875 9.125 C-5.07963369 6.73926621 -6.21141783 5.05324652 -7.1875 2.125 C-4.09861478 0.06574319 -3.47814073 -0.1140374 0 0 Z " fill="#2D3741" transform="translate(298.1875,181.875)"/>
<path d="M0 0 C1.9375 0.75 1.9375 0.75 4 2 C4.75 4.125 4.75 4.125 5 6 C3.02 6.66 1.04 7.32 -1 8 C-1.625 6.125 -1.625 6.125 -2 4 C-1.34 3.34 -0.68 2.68 0 2 C0 1.34 0 0.68 0 0 Z " fill="#434E5A" transform="translate(199,104)"/>
<path d="M0 0 C0.99 0.33 1.98 0.66 3 1 C5.14255793 0.61067144 5.14255793 0.61067144 7 0 C7.33 0.66 7.66 1.32 8 2 C6.35 3.32 4.7 4.64 3 6 C2.34 5.34 1.68 4.68 1 4 C-1.57061311 3.35232207 -1.57061311 3.35232207 -4 3 C-2.68 2.67 -1.36 2.34 0 2 C0 1.34 0 0.68 0 0 Z " fill="#48515B" transform="translate(135,232)"/>
<path d="M0 0 C0.5625 1.9375 0.5625 1.9375 1 4 C0 5 0 5 -3.5625 5.0625 C-4.696875 5.041875 -5.83125 5.02125 -7 5 C-6.3125 3.0625 -6.3125 3.0625 -5 1 C-2.375 0.25 -2.375 0.25 0 0 Z " fill="#F4F8FA" transform="translate(291,196)"/>
<path d="M0 0 C2.475 0.99 2.475 0.99 5 2 C4.67 3.32 4.34 4.64 4 6 C2.35 6.33 0.7 6.66 -1 7 C-0.67 4.69 -0.34 2.38 0 0 Z " fill="#3D4854" transform="translate(181,189)"/>
<path d="M0 0 C1.625 2 1.625 2 3 4 C2.13375 3.95875 1.2675 3.9175 0.375 3.875 C-3.12358468 4.00457721 -5.74551597 4.76019656 -9 6 C-9 5.34 -9 4.68 -9 4 C-2.25 0 -2.25 0 0 0 Z " fill="#525B64" transform="translate(188,34)"/>
<path d="M0 0 C1.32 0.33 2.64 0.66 4 1 C4 2.65 4 4.3 4 6 C2.68 6.33 1.36 6.66 0 7 C0 4.69 0 2.38 0 0 Z " fill="#4A5057" transform="translate(188,238)"/>
<path d="M0 0 C7.75 -0.125 7.75 -0.125 10 1 C10 2.32 10 3.64 10 5 C8.02 5 6.04 5 4 5 C4.66 4.67 5.32 4.34 6 4 C6 3.01 6 2.02 6 1 C4.02 1 2.04 1 0 1 C0 0.67 0 0.34 0 0 Z " fill="#CACED5" transform="translate(178,183)"/>
<path d="M0 0 C0.33 0.66 0.66 1.32 1 2 C1.66 2.33 2.32 2.66 3 3 C2.67 3.99 2.34 4.98 2 6 C0.35 5.67 -1.3 5.34 -3 5 C-3 4.01 -3 3.02 -3 2 C-2.01 1.34 -1.02 0.68 0 0 Z " fill="#303A45" transform="translate(191,312)"/>
<path d="M0 0 C0.350625 0.639375 0.70125 1.27875 1.0625 1.9375 C3.77184206 4.82163832 6.15858911 4.7100822 10 5 C8 7 8 7 5.0625 7.375 C2 7 2 7 0.0625 5.1875 C-1 3 -1 3 0 0 Z " fill="#D4DCE3" transform="translate(181,103)"/>
<path d="M0 0 C2.96175123 0.61277612 4.38058783 1.25372522 7 3 C6.01 3 5.02 3 4 3 C3.87625 3.639375 3.7525 4.27875 3.625 4.9375 C3.41875 5.618125 3.2125 6.29875 3 7 C2.01 7.495 2.01 7.495 1 8 C0.67 5.36 0.34 2.72 0 0 Z " fill="#414D5B" transform="translate(260,64)"/>
<path d="M0 0 C1 3 1 3 0 6 C-2.31 5.67 -4.62 5.34 -7 5 C-2.25 1.125 -2.25 1.125 0 0 Z " fill="#545D67" transform="translate(174,41)"/>
<path d="M0 0 C0.66 1.32 1.32 2.64 2 4 C-3.17578125 7.22265625 -3.17578125 7.22265625 -5 8 C-5.99 7.67 -6.98 7.34 -8 7 C-6.68 6.67 -5.36 6.34 -4 6 C-4 5.01 -4 4.02 -4 3 C-3.01 3 -2.02 3 -1 3 C-0.67 2.01 -0.34 1.02 0 0 Z " fill="#2B3642" transform="translate(318,267)"/>
<path d="M0 0 C0.33 0 0.66 0 1 0 C1 1.98 1 3.96 1 6 C1.99 6.33 2.98 6.66 4 7 C4 8.32 4 9.64 4 11 C2.68 11 1.36 11 0 11 C0 7.37 0 3.74 0 0 Z " fill="#262D37" transform="translate(310,234)"/>
<path d="M0 0 C1.65 0 3.3 0 5 0 C4.67 1.65 4.34 3.3 4 5 C2.68 5 1.36 5 0 5 C0 3.35 0 1.7 0 0 Z " fill="#474F56" transform="translate(127,183)"/>
<path d="M0 0 C1.65 0 3.3 0 5 0 C2.0094833 3.33557632 -0.93184627 5.15083921 -5 7 C-5 5.68 -5 4.36 -5 3 C-3.35 3 -1.7 3 0 3 C0 2.01 0 1.02 0 0 Z " fill="#2F3942" transform="translate(295,281)"/>
<path d="M0 0 C2.29013653 3.4352048 2.17842973 4.985331 2 9 C0.35 9.66 -1.3 10.32 -3 11 C-2.01 7.37 -1.02 3.74 0 0 Z " fill="#545C65" transform="translate(211,74)"/>
<path d="M0 0 C0.66 0 1.32 0 2 0 C2 0.66 2 1.32 2 2 C2.99 2 3.98 2 5 2 C4.34 4.64 3.68 7.28 3 10 C1.11608215 6.73454239 0.50712033 3.71888239 0 0 Z " fill="#52595F" transform="translate(204,68)"/>
<path d="M0 0 C1.98 0 3.96 0 6 0 C6.33 1.65 6.66 3.3 7 5 C4.69 4.67 2.38 4.34 0 4 C0 2.66666667 0 1.33333333 0 0 Z " fill="#4B4F59" transform="translate(174,67)"/>
<path d="M0 0 C0.33 0 0.66 0 1 0 C1.02578125 0.69867188 1.0515625 1.39734375 1.078125 2.1171875 C1.13484375 3.02726562 1.1915625 3.93734375 1.25 4.875 C1.29640625 5.77992187 1.3428125 6.68484375 1.390625 7.6171875 C1.75611148 10.17110544 1.75611148 10.17110544 4.046875 11.3203125 C4.69140625 11.54460937 5.3359375 11.76890625 6 12 C4.34385343 12.38218767 2.67542976 12.71395102 1 13 C0 12 0 12 -0.09765625 9.27734375 C-0.08605469 8.17519531 -0.07445312 7.07304688 -0.0625 5.9375 C-0.05347656 4.83277344 -0.04445312 3.72804688 -0.03515625 2.58984375 C-0.02355469 1.73519531 -0.01195312 0.88054687 0 0 Z " fill="#DFE6EA" transform="translate(205,97)"/>
<path d="M0 0 C0 3 0 3 -1 6 C-3.97 5.505 -3.97 5.505 -7 5 C-2.25 1.125 -2.25 1.125 0 0 Z " fill="#58606A" transform="translate(89,90)"/>
<path d="M0 0 C0.99 0.33 1.98 0.66 3 1 C2.34 2.32 1.68 3.64 1 5 C1.66 5.33 2.32 5.66 3 6 C1.1875 6.6875 1.1875 6.6875 -1 7 C-2.75 5.5625 -2.75 5.5625 -4 4 C-2.68 3.67 -1.36 3.34 0 3 C0 2.01 0 1.02 0 0 Z " fill="#CBD2D3" transform="translate(284,52)"/>
<path d="M0 0 C1.32 0.66 2.64 1.32 4 2 C3.67 2.99 3.34 3.98 3 5 C1.35 4.67 -0.3 4.34 -2 4 C-1.34 2.68 -0.68 1.36 0 0 Z " fill="#313D48" transform="translate(162,297)"/>
<path d="M0 0 C0.125 2.875 0.125 2.875 0 6 C-0.66 6.66 -1.32 7.32 -2 8 C-2 7.34 -2 6.68 -2 6 C-2.66 6 -3.32 6 -4 6 C-4 4.68 -4 3.36 -4 2 C-1 0 -1 0 0 0 Z " fill="#E8EBEE" transform="translate(196,239)"/>
<path d="M0 0 C-0.33 0.99 -0.66 1.98 -1 3 C-2.32 2.67 -3.64 2.34 -5 2 C-5.66 3.32 -6.32 4.64 -7 6 C-7 4.02 -7 2.04 -7 0 C-4.3333581 -1.33332095 -2.83319697 -0.67102033 0 0 Z " fill="#47515C" transform="translate(146,238)"/>
<path d="M0 0 C-2 2 -2 2 -4 3 C-4.66 2.67 -5.32 2.34 -6 2 C-6 1.34 -6 0.68 -6 0 C-7.32 -0.33 -8.64 -0.66 -10 -1 C-5.92224809 -1.9267618 -3.57818963 -2.33958553 0 0 Z " fill="#4E555E" transform="translate(167,202)"/>
<path d="M0 0 C1.32 0.33 2.64 0.66 4 1 C3.01 1.495 3.01 1.495 2 2 C2.33 2.66 2.66 3.32 3 4 C2.01 4.66 1.02 5.32 0 6 C-1.19232613 8.05003955 -1.19232613 8.05003955 -2 10 C-2 7.36 -2 4.72 -2 2 C-1.34 2 -0.68 2 0 2 C0 1.34 0 0.68 0 0 Z " fill="#343F4C" transform="translate(227,170)"/>
<path d="M0 0 C0.66 0.33 1.32 0.66 2 1 C0.8125 3.4375 0.8125 3.4375 -1 6 C-3.6875 6.8125 -3.6875 6.8125 -6 7 C-4.02 4.69 -2.04 2.38 0 0 Z " fill="#EDA549" transform="translate(252,72)"/>
<path d="M0 0 C0.66 0.33 1.32 0.66 2 1 C2 1.66 2 2.32 2 3 C-0.3125 4.6875 -0.3125 4.6875 -3 6 C-3.99 5.67 -4.98 5.34 -6 5 C-4.06745228 2.9754262 -2.36841312 1.57894208 0 0 Z " fill="#2F3843" transform="translate(254,305)"/>
<path d="M0 0 C-2.8125 2.0625 -2.8125 2.0625 -6 4 C-6.99 3.67 -7.98 3.34 -9 3 C-8.34 3 -7.68 3 -7 3 C-7.33 2.01 -7.66 1.02 -8 0 C-4.71303767 -0.79953138 -3.28976808 -1.09658936 0 0 Z " fill="#2D3643" transform="translate(281,293)"/>
<path d="M0 0 C0.33 0 0.66 0 1 0 C1 2.31 1 4.62 1 7 C1.99 7.33 2.98 7.66 4 8 C3.67 8.99 3.34 9.98 3 11 C2.01 10.67 1.02 10.34 0 10 C0 6.7 0 3.4 0 0 Z " fill="#545765" transform="translate(150,235)"/>
<path d="M0 0 C1.65 0 3.3 0 5 0 C4.67 1.32 4.34 2.64 4 4 C2.35 4 0.7 4 -1 4 C-0.67 2.68 -0.34 1.36 0 0 Z " fill="#F7FBFC" transform="translate(181,197)"/>
<path d="M0 0 C0.66 0.99 1.32 1.98 2 3 C3.32520503 3.68268138 4.65812182 4.3507041 6 5 C6.33 5.66 6.66 6.32 7 7 C5.02 7 3.04 7 1 7 C-0.0625 4.625 -0.0625 4.625 -1 2 C-0.67 1.34 -0.34 0.68 0 0 Z " fill="#717780" transform="translate(202,177)"/>
<path d="M0 0 C0.66 0 1.32 0 2 0 C2 0.66 2 1.32 2 2 C2.66 2.33 3.32 2.66 4 3 C1 5 1 5 -3 5 C-1.125 1.125 -1.125 1.125 0 0 Z " fill="#495461" transform="translate(211,91)"/>
<path d="M0 0 C0.66 0.33 1.32 0.66 2 1 C2.625 3.5625 2.625 3.5625 3 6 C3.66 6 4.32 6 5 6 C5 6.66 5 7.32 5 8 C2.97954558 7.39816251 0.97888961 6.72693904 -1 6 C-1.33 5.34 -1.66 4.68 -2 4 C-1.01 4 -0.02 4 1 4 C0.67 2.68 0.34 1.36 0 0 Z " fill="#DA953A" transform="translate(241,77)"/>
<path d="M0 0 C1.32 0.66 2.64 1.32 4 2 C4 3.32 4 4.64 4 6 C2.68 5.34 1.36 4.68 0 4 C0 2.68 0 1.36 0 0 Z " fill="#FDECBF" transform="translate(242,74)"/>
<path d="M0 0 C0.99 0.99 1.98 1.98 3 3 C2.34 3.66 1.68 4.32 1 5 C0.3574765 7.06874034 0.3574765 7.06874034 0 9 C-0.66 8.67 -1.32 8.34 -2 8 C-2 5.69 -2 3.38 -2 1 C-1.34 0.67 -0.68 0.34 0 0 Z " fill="#E6E8EB" transform="translate(182,64)"/>
<path d="M0 0 C1.32 0.66 2.64 1.32 4 2 C3.67 2.99 3.34 3.98 3 5 C1.02 4.34 -0.96 3.68 -3 3 C-2.01 2.01 -1.02 1.02 0 0 Z " fill="#454E58" transform="translate(95,259)"/>
<path d="M0 0 C1.32 0 2.64 0 4 0 C3.67 1.32 3.34 2.64 3 4 C0.36 4 -2.28 4 -5 4 C-5 3.67 -5 3.34 -5 3 C-3.35 3 -1.7 3 0 3 C0 2.01 0 1.02 0 0 Z " fill="#29313A" transform="translate(291,246)"/>
<path d="M0 0 C2.31 0 4.62 0 7 0 C6.34 1.65 5.68 3.3 5 5 C4.34 5 3.68 5 3 5 C2.87625 4.360625 2.7525 3.72125 2.625 3.0625 C2.315625 2.0415625 2.315625 2.0415625 2 1 C1.34 0.67 0.68 0.34 0 0 Z " fill="#E4E9ED" transform="translate(241,183)"/>
<path d="M0 0 C0.33 0.66 0.66 1.32 1 2 C1.99 2.33 2.98 2.66 4 3 C2.68 3.33 1.36 3.66 0 4 C-0.33 5.32 -0.66 6.64 -1 8 C-1.66 5.69 -2.32 3.38 -3 1 C-2.01 1.33 -1.02 1.66 0 2 C0 1.34 0 0.68 0 0 Z " fill="#48525D" transform="translate(205,88)"/>
<path d="M0 0 C2.46800047 1.15173355 4.04783565 2.04783565 6 4 C3.36 4 0.72 4 -2 4 C-2.33 3.34 -2.66 2.68 -3 2 C-2.01 1.34 -1.02 0.68 0 0 Z " fill="#E3E8EB" transform="translate(173,80)"/>
<path d="M0 0 C2.5654594 2.5654594 2.54046087 4.47686668 3 8 C1.02 8.99 1.02 8.99 -1 10 C-0.814375 9.236875 -0.62875 8.47375 -0.4375 7.6875 C0.22819173 4.91032625 0.22819173 4.91032625 -1 2 C-0.67 1.34 -0.34 0.68 0 0 Z " fill="#4A5259" transform="translate(201,74)"/>
<path d="M0 0 C2.0625 0.4375 2.0625 0.4375 4 1 C2.68 2.65 1.36 4.3 0 6 C-0.38218767 4.34385343 -0.71395102 2.67542976 -1 1 C-0.67 0.67 -0.34 0.34 0 0 Z " fill="#F3F7FB" transform="translate(204,175)"/>
<path d="M0 0 C2.64 0 5.28 0 8 0 C5.61426621 1.89213369 3.92824652 3.02391783 1 4 C0.67 2.68 0.34 1.36 0 0 Z " fill="#444D55" transform="translate(183,104)"/>
<path d="M0 0 C1.98 0.99 3.96 1.98 6 3 C6 3.66 6 4.32 6 5 C4.35 5 2.7 5 1 5 C0.67 3.35 0.34 1.7 0 0 Z " fill="#555B65" transform="translate(173,76)"/>
<path d="M0 0 C4.51013824 0.28788116 5.70514769 0.70514769 9 4 C5.37 3.34 1.74 2.68 -2 2 C-1.34 1.34 -0.68 0.68 0 0 Z " fill="#E1E3E4" transform="translate(212,10)"/>
<path d="M0 0 C0.99 0.33 1.98 0.66 3 1 C2.67 1.99 2.34 2.98 2 4 C-0.0625 4.6875 -0.0625 4.6875 -2 5 C-2 3.68 -2 2.36 -2 1 C-1.34 0.67 -0.68 0.34 0 0 Z " fill="#27323E" transform="translate(219,324)"/>
<path d="M0 0 C0.33 0.66 0.66 1.32 1 2 C4.465 1.505 4.465 1.505 8 1 C8 1.66 8 2.32 8 3 C5.03 3.66 2.06 4.32 -1 5 C-0.67 3.35 -0.34 1.7 0 0 Z " fill="#323B47" transform="translate(171,247)"/>
<path d="M0 0 C0.33 0 0.66 0 1 0 C1.33 2.97 1.66 5.94 2 9 C1.01 9.33 0.02 9.66 -1 10 C-0.67 6.7 -0.34 3.4 0 0 Z " fill="#373F47" transform="translate(188,190)"/>
<path d="M0 0 C0.66 0.33 1.32 0.66 2 1 C1.34 2.32 0.68 3.64 0 5 C-1.65 4.67 -3.3 4.34 -5 4 C-3.35 2.68 -1.7 1.36 0 0 Z " fill="#59616B" transform="translate(111,77)"/>
</svg>
